<!-- Generated by IcoMoon.io -->
<svg version="1.1" xmlns="http://www.w3.org/2000/svg" width="32" height="32" viewBox="0 0 32 32">
<title>alumni</title>
<path fill="#fff" d="M1.082 29.578c0.21 0 0.374 0.075 0.494 0.225 0.12 0.149 0.179 0.357 0.179 0.622 0 0.263-0.060 0.47-0.178 0.621s-0.28 0.225-0.487 0.225c-0.247 0-0.412-0.092-0.498-0.276h-0.027v0.763h-0.435v-2.153h0.422v0.269h0.027c0.045-0.092 0.111-0.164 0.2-0.217 0.088-0.052 0.189-0.079 0.303-0.079zM0.934 30.909c0.117 0 0.209-0.043 0.275-0.13 0.065-0.084 0.098-0.203 0.098-0.355s-0.033-0.269-0.098-0.355c-0.067-0.085-0.159-0.129-0.274-0.129s-0.207 0.043-0.275 0.129c-0.066 0.088-0.1 0.206-0.1 0.356 0 0.15 0.034 0.268 0.1 0.354 0.067 0.087 0.159 0.13 0.274 0.13z"></path>
<path fill="#fff" d="M2.685 30.927c0.115 0 0.205-0.044 0.27-0.133 0.063-0.088 0.095-0.211 0.095-0.37s-0.032-0.281-0.095-0.369c-0.065-0.089-0.154-0.132-0.27-0.132s-0.205 0.043-0.269 0.132c-0.064 0.088-0.096 0.211-0.096 0.369 0 0.159 0.032 0.283 0.096 0.371 0.062 0.088 0.152 0.132 0.269 0.132zM2.685 31.281c-0.253 0-0.452-0.076-0.596-0.228-0.145-0.151-0.215-0.361-0.215-0.628 0-0.266 0.072-0.475 0.217-0.626 0.145-0.152 0.342-0.229 0.594-0.229s0.45 0.076 0.595 0.227c0.146 0.152 0.217 0.362 0.217 0.628 0 0.267-0.072 0.477-0.215 0.628-0.145 0.152-0.344 0.228-0.597 0.228z"></path>
<path fill="#fff" d="M5.474 31.245h-0.463l-0.295-1.131h-0.027l-0.291 1.131h-0.458l-0.439-1.64h0.44l0.246 1.177h0.027l0.288-1.177h0.415l0.29 1.177h0.027l0.246-1.177h0.432l-0.438 1.64z"></path>
<path fill="#fff" d="M6.712 29.901c-0.1 0-0.184 0.032-0.249 0.096-0.065 0.065-0.101 0.149-0.11 0.256h0.703c-0.005-0.109-0.038-0.195-0.099-0.257-0.062-0.064-0.143-0.095-0.246-0.095zM7.471 30.778c-0.034 0.156-0.116 0.278-0.25 0.368-0.135 0.090-0.302 0.135-0.505 0.135-0.25 0-0.447-0.075-0.587-0.225-0.14-0.148-0.211-0.356-0.211-0.623 0-0.266 0.071-0.477 0.213-0.631 0.141-0.155 0.335-0.233 0.579-0.233 0.244 0 0.433 0.072 0.569 0.218s0.204 0.349 0.204 0.61v0.132h-1.132v0.023c0.003 0.122 0.038 0.217 0.105 0.289s0.158 0.107 0.271 0.107c0.177 0 0.289-0.056 0.337-0.17h0.406z"></path>
<path fill="#fff" d="M7.684 29.605h0.422v0.262h0.027c0.022-0.083 0.071-0.151 0.148-0.204 0.078-0.056 0.169-0.084 0.27-0.084 0.074 0 0.129 0.008 0.167 0.022v0.394c-0.046-0.018-0.113-0.027-0.202-0.027-0.12 0-0.214 0.032-0.286 0.098-0.074 0.068-0.111 0.158-0.111 0.273v0.908h-0.435v-1.64z"></path>
<path fill="#fff" d="M9.529 29.901c-0.101 0-0.185 0.032-0.25 0.096-0.064 0.065-0.101 0.149-0.109 0.256h0.702c-0.005-0.109-0.038-0.195-0.099-0.257-0.062-0.064-0.143-0.095-0.245-0.095zM10.286 30.778c-0.033 0.156-0.116 0.278-0.25 0.368-0.135 0.090-0.302 0.135-0.503 0.135-0.251 0-0.448-0.075-0.588-0.225-0.14-0.148-0.21-0.356-0.21-0.623 0-0.266 0.071-0.477 0.212-0.631s0.335-0.233 0.579-0.233c0.244 0 0.433 0.072 0.569 0.218s0.204 0.349 0.204 0.61v0.132h-1.132v0.023c0.003 0.122 0.038 0.217 0.107 0.289 0.066 0.071 0.158 0.107 0.27 0.107 0.177 0 0.289-0.056 0.337-0.17h0.406z"></path>
<path fill="#fff" d="M11.090 31.27c-0.207 0-0.371-0.076-0.491-0.227-0.12-0.151-0.179-0.358-0.179-0.621 0-0.261 0.060-0.466 0.181-0.619 0.12-0.15 0.284-0.226 0.49-0.226 0.112 0 0.211 0.026 0.298 0.076 0.087 0.052 0.151 0.122 0.195 0.213h0.025v-0.888h0.435v2.267h-0.422v-0.257h-0.026c-0.045 0.089-0.11 0.158-0.199 0.208s-0.19 0.075-0.306 0.075zM11.238 29.941c-0.115 0-0.207 0.043-0.273 0.129s-0.099 0.203-0.099 0.355c0 0.151 0.033 0.27 0.099 0.355 0.065 0.087 0.157 0.13 0.273 0.13 0.117 0 0.209-0.043 0.275-0.13 0.066-0.084 0.099-0.202 0.099-0.354 0-0.149-0.033-0.267-0.1-0.354-0.067-0.088-0.158-0.131-0.274-0.131z"></path>
<path fill="#fff" d="M23.060 30.944c0.101 0 0.185-0.028 0.253-0.084 0.067-0.056 0.101-0.127 0.101-0.21v-0.121l-0.333 0.022c-0.186 0.013-0.278 0.078-0.278 0.197 0 0.062 0.024 0.109 0.072 0.145 0.047 0.035 0.109 0.052 0.185 0.052zM22.916 31.27c-0.159 0-0.288-0.044-0.388-0.133-0.1-0.092-0.151-0.212-0.151-0.36s0.054-0.265 0.166-0.349c0.109-0.084 0.267-0.133 0.472-0.145l0.399-0.024v-0.134c0-0.142-0.092-0.214-0.278-0.214-0.161 0-0.26 0.051-0.297 0.152h-0.401c0.014-0.152 0.087-0.273 0.217-0.361 0.129-0.089 0.298-0.133 0.504-0.133 0.217 0 0.386 0.049 0.506 0.146s0.178 0.234 0.178 0.41v1.12h-0.422v-0.214h-0.027c-0.090 0.159-0.25 0.239-0.478 0.239z"></path>
<path fill="#fff" d="M24.13 28.978h0.435v2.267h-0.435v-2.267z"></path>
<path fill="#fff" d="M26.391 31.245h-0.422v-0.264h-0.027c-0.039 0.095-0.101 0.169-0.189 0.221-0.088 0.053-0.191 0.079-0.311 0.079-0.183 0-0.327-0.054-0.434-0.162-0.108-0.109-0.161-0.26-0.161-0.452v-1.062h0.434v0.957c0 0.228 0.108 0.343 0.322 0.343 0.108 0 0.194-0.031 0.258-0.095 0.063-0.064 0.096-0.149 0.096-0.258v-0.946h0.435v1.64z"></path>
<path fill="#fff" d="M26.672 29.604h0.421v0.268h0.027c0.034-0.094 0.091-0.169 0.172-0.223 0.082-0.054 0.176-0.081 0.284-0.081 0.235 0 0.386 0.102 0.457 0.304h0.027c0.038-0.093 0.102-0.165 0.189-0.221 0.089-0.055 0.192-0.083 0.307-0.083 0.164 0 0.295 0.050 0.39 0.148 0.096 0.099 0.143 0.234 0.143 0.402v1.126h-0.435v-1.011c0-0.195-0.092-0.292-0.275-0.292-0.088 0-0.159 0.028-0.211 0.085-0.053 0.054-0.079 0.125-0.079 0.213v1.005h-0.419v-1.028c0-0.088-0.024-0.155-0.072-0.203-0.048-0.048-0.114-0.071-0.2-0.071-0.085 0-0.154 0.029-0.21 0.090-0.054 0.059-0.081 0.135-0.081 0.226v0.987h-0.435v-1.64z"></path>
<path fill="#fff" d="M29.355 29.604h0.421v0.263h0.027c0.038-0.092 0.103-0.164 0.195-0.218 0.091-0.053 0.198-0.080 0.319-0.080 0.183 0 0.325 0.054 0.426 0.161 0.099 0.107 0.149 0.258 0.149 0.454v1.061h-0.435v-0.958c0-0.23-0.104-0.345-0.314-0.345-0.108 0-0.194 0.032-0.257 0.098-0.064 0.065-0.096 0.15-0.096 0.258v0.946h-0.435v-1.64z"></path>
<path fill="#fff" d="M31.161 29.605h0.435v1.64h-0.435v-1.64zM31.379 29.375c-0.077 0-0.139-0.021-0.187-0.061-0.047-0.041-0.070-0.093-0.070-0.158s0.023-0.118 0.070-0.158c0.048-0.040 0.11-0.061 0.187-0.061 0.078 0 0.14 0.021 0.187 0.061s0.071 0.093 0.071 0.158-0.024 0.117-0.071 0.158c-0.048 0.040-0.11 0.061-0.187 0.061z"></path>
<path fill="#fff" d="M13.171 31.245v-2.147h0.451v0.957h0.027l0.797-0.957h0.502l-0.786 0.942 0.841 1.205h-0.541l-0.626-0.899-0.214 0.252v0.647h-0.451z"></path>
<path fill="#fff" d="M15.187 31.245v-2.147h0.533l0.597 1.443h0.026l0.598-1.443h0.531v2.147h-0.419v-1.435h-0.024l-0.548 1.312h-0.301l-0.55-1.312h-0.024v1.435h-0.419z"></path>
<path fill="#fff" d="M17.84 31.245v-2.147h0.943c0.209 0 0.373 0.049 0.492 0.144 0.117 0.095 0.176 0.226 0.176 0.393 0 0.113-0.037 0.214-0.112 0.302s-0.167 0.138-0.278 0.156v0.027c0.142 0.011 0.261 0.064 0.354 0.159 0.092 0.097 0.139 0.215 0.139 0.353 0 0.188-0.067 0.337-0.2 0.448-0.134 0.111-0.316 0.167-0.546 0.167h-0.969zM18.291 29.988h0.339c0.122 0 0.214-0.024 0.279-0.071s0.098-0.115 0.098-0.201c0-0.087-0.030-0.154-0.089-0.2-0.059-0.049-0.142-0.073-0.25-0.073h-0.377v0.546zM18.693 30.901c0.266 0 0.401-0.103 0.401-0.309 0-0.2-0.138-0.301-0.412-0.301h-0.391v0.61h0.402z"></path>
<path fill="#fff" d="M20.146 30.648c0.010 0.088 0.057 0.157 0.139 0.209 0.081 0.052 0.185 0.078 0.313 0.078 0.117 0 0.213-0.026 0.288-0.078 0.075-0.051 0.112-0.117 0.112-0.198 0-0.068-0.029-0.123-0.086-0.167-0.059-0.042-0.153-0.078-0.286-0.106l-0.281-0.059c-0.391-0.081-0.587-0.285-0.587-0.612 0-0.202 0.076-0.364 0.226-0.489 0.15-0.121 0.35-0.182 0.599-0.182 0.238 0 0.433 0.059 0.587 0.18 0.152 0.12 0.232 0.276 0.238 0.467h-0.424c-0.011-0.085-0.052-0.154-0.125-0.205s-0.164-0.077-0.273-0.077c-0.114 0-0.204 0.024-0.272 0.072-0.070 0.049-0.103 0.114-0.103 0.195 0 0.067 0.027 0.12 0.084 0.161 0.054 0.040 0.146 0.073 0.272 0.101l0.26 0.055c0.217 0.045 0.374 0.117 0.473 0.214s0.148 0.229 0.148 0.396c0 0.216-0.078 0.386-0.235 0.512-0.155 0.123-0.369 0.186-0.639 0.186-0.258 0-0.464-0.058-0.619-0.175-0.157-0.118-0.238-0.276-0.246-0.477h0.436z"></path>
<path fill="#fff" d="M31.612 1.177l-5.554 11.047 2.28 4.534c0.551 1.096 0.944 1.714 1.304 1.963h0.012c0.237 0.163 0.708 0.213 1.475 0.213v5.608c-1.925 0-3.337-0.285-4.691-1.221l0.003-0.005c-1.229-0.851-2.138-2.099-3.125-4.061l-0.384-0.765c-0.638 1.041-1.371 1.97-2.37 2.878-1.097 0.996-2.39 1.797-3.819 2.348-1.383 0.533-2.87 0.826-4.406 0.826-3.372 0-6.426-1.36-8.638-3.559-2.21-2.198-3.578-5.236-3.578-8.591 0-3.354 1.368-6.392 3.578-8.59 2.211-2.198 5.265-3.559 8.638-3.559 1.5 0 2.951 0.277 4.302 0.783 1.384 0.518 2.652 1.282 3.746 2.24 1.078 0.943 1.796 1.882 2.421 2.945l2.529-5.033h6.277zM14.657 6.26c-0.709-0.265-1.489-0.411-2.32-0.411-1.817 0-3.462 0.732-4.651 1.916-1.191 1.184-1.926 2.819-1.926 4.626s0.736 3.443 1.926 4.627c1.189 1.183 2.834 1.915 4.651 1.915 0.857 0 1.658-0.152 2.381-0.431 0.756-0.291 1.452-0.727 2.057-1.275 1.217-1.104 1.931-2.601 2.909-4.764-0.222-0.447-0.424-0.865-0.615-1.262-1.096-2.269-1.913-4.005-4.412-4.941z"></path>
<path fill="#001d3b" opacity="0.1" d="M27.243 9.869l-1.185 2.355-3.597-6.572c0.12 0.183 0.234 0.369 0.346 0.558l1.202-2.392 3.234 6.051zM22.911 18.525c-0.633 1.027-1.361 1.946-2.348 2.843-0.087 0.078-0.174 0.156-0.263 0.231l-2.76-5.195c0.793-1 1.39-2.273 2.145-3.942l-0.072-0.145 3.299 6.207z"></path>
</svg>
