<svg xmlns="http://www.w3.org/2000/svg" width="169" height="48" fill="none"><g fill-rule="evenodd" clip-path="url(#a)" clip-rule="evenodd"><path fill="#F90" d="M103.347 37.535c-9.259 6.822-22.68 10.462-34.234 10.462-16.202 0-30.788-5.99-41.822-15.953-.868-.783-.091-1.85.95-1.241 11.909 6.926 26.633 11.092 41.843 11.092 10.258 0 21.542-2.12 31.918-6.523 1.567-.666 2.878 1.026 1.345 2.163Z"/><path fill="#F90" d="M107.196 33.133c-1.179-1.512-7.823-.715-10.805-.36-.909.11-1.047-.68-.23-1.25 5.293-3.722 13.976-2.647 14.989-1.4 1.013 1.255-.264 9.956-5.236 14.109-.763.638-1.492.299-1.152-.548 1.117-2.786 3.62-9.033 2.434-10.551Z"/><path fill="#fff" d="M96.599 5.241V1.622c0-.547.416-.915.916-.915h16.208c.52 0 .936.374.936.915v3.1c-.007.52-.443 1.198-1.22 2.274l-8.4 11.986c3.121-.076 6.416.388 9.246 1.984.638.36.811.887.86 1.407v3.862c0 .527-.583 1.143-1.193.824-4.987-2.614-11.61-2.898-17.124.028-.562.305-1.151-.305-1.151-.832v-3.667c0-.59.006-1.596.596-2.49l9.73-13.949h-8.468c-.52 0-.936-.367-.936-.908ZM32.54 27.822c-.471-.035-.846-.388-.88-.84V1.686c0-.506.423-.908.95-.908h4.598c.478.02.86.388.894.845V4.93h.091c1.199-3.196 3.454-4.686 6.49-4.686 3.088 0 5.016 1.49 6.403 4.686C52.28 1.733 54.992.243 57.897.243c2.068 0 4.328.852 5.709 2.765 1.56 2.13 1.241 5.222 1.241 7.932l-.006 15.967c0 .506-.424.915-.95.915h-4.925c-.493-.035-.888-.43-.888-.915V13.499c0-1.068.097-3.73-.139-4.742-.367-1.7-1.47-2.177-2.898-2.177-1.194 0-2.442.796-2.948 2.072-.507 1.276-.458 3.412-.458 4.847v13.408c0 .506-.423.915-.95.915H45.76c-.499-.035-.887-.43-.887-.915l-.007-13.408c0-2.822.464-6.975-3.038-6.975-3.544 0-3.406 4.049-3.406 6.975v13.408c0 .506-.423.915-.95.915h-4.931Zm107.35-13.311c0 7.716-4.376 13.838-11.277 13.838-7.185 0-11.097-6.282-11.097-14.108 0-7.877 3.961-13.998 11.097-13.998 7.317 0 11.277 6.28 11.277 14.268Zm-15.098-1.068c0 3.092-.049 9.693 3.821 9.693 3.822 0 4.002-5.325 4.002-8.57 0-2.135-.091-4.686-.735-6.71-.556-1.762-1.658-2.449-3.225-2.449-3.634 0-3.863 4.95-3.863 8.036Zm19.676 14.38c-.493-.036-.888-.431-.888-.916L143.574 1.6c.042-.464.451-.824.95-.824h4.571c.43.02.784.311.881.707v3.869h.09c1.38-3.46 3.315-5.11 6.721-5.11 2.213 0 4.37.797 5.757 2.98 1.289 2.025 1.289 5.429 1.289 7.877v15.924c-.055.444-.465.798-.95.798h-4.945c-.451-.035-.826-.367-.874-.798v-13.74c0-2.767.319-6.816-3.086-6.816-1.2 0-2.303.805-2.851 2.025-.694 1.546-.783 3.085-.783 4.79v13.624c-.007.506-.437.915-.964.915h-4.911Zm-56.983.048c-1.637-1.36-1.936-1.99-2.83-3.286-2.705 2.758-4.626 3.584-8.13 3.584-4.153 0-7.379-2.559-7.379-7.682 0-4 2.164-6.725 5.257-8.056 2.678-1.179 6.417-1.387 9.274-1.713v-.637c0-1.172.09-2.558-.604-3.571-.596-.908-1.748-1.283-2.767-1.283-1.88 0-3.551.964-3.96 2.96-.083.444-.41.881-.86.902l-4.779-.513c-.402-.09-.853-.416-.735-1.033C71.069 1.747 76.311 0 81.001 0c2.399 0 5.534.638 7.428 2.455 2.4 2.238 2.17 5.227 2.17 8.478v7.682c0 2.309.958 3.32 1.859 4.568.313.445.381.978-.02 1.31-1.007.84-2.795 2.4-3.78 3.273l-.007-.014c-.327.292-.798.312-1.165.119Zm-3.808-12.134V14.67c-3.572 0-7.339.763-7.339 4.964 0 2.128 1.11 3.57 3.004 3.57 1.38 0 2.629-.852 3.413-2.238.97-1.706.922-3.308.922-5.229ZM24.003 27.752c-.326.292-.797.312-1.165.119-1.637-1.36-1.929-1.99-2.83-3.286-2.705 2.758-4.619 3.584-8.129 3.584-4.147 0-7.379-2.559-7.379-7.682 0-4 2.17-6.725 5.257-8.056 2.678-1.179 6.416-1.387 9.273-1.713v-.637c0-1.172.09-2.558-.596-3.571-.604-.908-1.755-1.283-2.768-1.283-1.879 0-3.558.964-3.967 2.96-.083.444-.41.881-.853.902L6.06 8.576c-.402-.09-.846-.416-.734-1.033C6.428 1.747 11.665 0 16.353 0c2.4 0 5.534.638 7.428 2.455 2.4 2.238 2.171 5.227 2.171 8.478v7.682c0 2.309.957 3.32 1.858 4.568.32.445.389.978-.013 1.31-1.005.84-2.795 2.4-3.78 3.273l-.014-.014ZM19.03 15.737V14.67c-3.565 0-7.331.763-7.331 4.964 0 2.128 1.103 3.57 2.996 3.57 1.387 0 2.63-.852 3.413-2.238.971-1.706.922-3.308.922-5.229Z"/></g><defs><clipPath id="a"><path fill="#fff" d="M4.5 0h159.333v48H4.5z"/></clipPath></defs></svg>