<!-- Generated by IcoMoon.io -->
<svg version="1.1" xmlns="http://www.w3.org/2000/svg" width="39" height="32" viewBox="0 0 39 32">
<title>blackbox</title>
<path fill="#84c225" d="M19.33 21.286c-0.149 0-0.284-0.028-0.405-0.084-0.121-0.057-0.218-0.139-0.289-0.246-0.071-0.108-0.107-0.239-0.107-0.392 0-0.135 0.027-0.244 0.080-0.327 0.053-0.085 0.124-0.151 0.213-0.199s0.187-0.084 0.294-0.107c0.108-0.024 0.217-0.044 0.326-0.058 0.143-0.018 0.259-0.032 0.347-0.041 0.090-0.010 0.155-0.027 0.196-0.050 0.042-0.023 0.063-0.064 0.063-0.122v-0.012c0-0.151-0.041-0.268-0.124-0.352-0.082-0.084-0.205-0.125-0.372-0.125-0.172 0-0.307 0.038-0.405 0.113s-0.167 0.156-0.207 0.242l-0.343-0.122c0.061-0.143 0.143-0.254 0.245-0.333 0.103-0.081 0.215-0.137 0.337-0.168 0.122-0.033 0.243-0.049 0.361-0.049 0.075 0 0.162 0.009 0.26 0.027 0.099 0.017 0.194 0.054 0.286 0.109 0.093 0.055 0.17 0.138 0.231 0.249s0.092 0.26 0.092 0.447v1.548h-0.361v-0.318h-0.018c-0.024 0.051-0.065 0.106-0.122 0.164s-0.133 0.108-0.228 0.148c-0.095 0.041-0.211 0.061-0.347 0.061zM19.385 20.962c0.143 0 0.263-0.028 0.361-0.084 0.099-0.056 0.173-0.128 0.223-0.217s0.076-0.182 0.076-0.28v-0.33c-0.015 0.018-0.049 0.035-0.101 0.050-0.051 0.014-0.11 0.027-0.177 0.038-0.066 0.010-0.131 0.019-0.194 0.028-0.062 0.007-0.113 0.013-0.151 0.018-0.094 0.012-0.181 0.032-0.263 0.060-0.081 0.027-0.146 0.067-0.196 0.121-0.049 0.053-0.073 0.125-0.073 0.217 0 0.125 0.046 0.22 0.139 0.285 0.094 0.063 0.213 0.095 0.356 0.095z"></path>
<path fill="#84c225" d="M21.841 22.161c-0.174 0-0.324-0.022-0.45-0.067-0.125-0.044-0.23-0.102-0.314-0.174-0.083-0.071-0.148-0.148-0.197-0.229l0.288-0.202c0.033 0.043 0.074 0.092 0.124 0.147s0.118 0.105 0.205 0.145c0.088 0.042 0.202 0.063 0.344 0.063 0.19 0 0.346-0.046 0.47-0.138s0.185-0.236 0.185-0.431v-0.477h-0.031c-0.026 0.043-0.064 0.096-0.113 0.159-0.048 0.062-0.117 0.118-0.208 0.167-0.090 0.048-0.211 0.072-0.364 0.072-0.19 0-0.36-0.045-0.511-0.135-0.15-0.090-0.269-0.22-0.356-0.392s-0.13-0.379-0.13-0.624c0-0.241 0.042-0.45 0.127-0.629 0.085-0.18 0.202-0.318 0.353-0.416 0.151-0.099 0.325-0.148 0.523-0.148 0.153 0 0.274 0.025 0.364 0.076 0.091 0.050 0.16 0.107 0.208 0.171 0.049 0.063 0.087 0.115 0.113 0.156h0.037v-0.373h0.349v2.417c0 0.202-0.046 0.366-0.138 0.493s-0.213 0.221-0.367 0.28c-0.153 0.060-0.323 0.090-0.511 0.090zM21.829 20.87c0.145 0 0.267-0.033 0.367-0.099s0.176-0.162 0.228-0.286c0.052-0.124 0.078-0.273 0.078-0.447 0-0.169-0.026-0.319-0.076-0.448s-0.126-0.231-0.226-0.304c-0.1-0.073-0.223-0.11-0.37-0.11-0.153 0-0.28 0.039-0.382 0.116s-0.177 0.181-0.228 0.312c-0.050 0.131-0.075 0.275-0.075 0.434 0 0.163 0.025 0.307 0.076 0.433 0.052 0.124 0.128 0.222 0.229 0.294 0.102 0.070 0.228 0.106 0.379 0.106z"></path>
<path fill="#84c225" d="M24.331 21.28c-0.226 0-0.422-0.050-0.586-0.15-0.163-0.101-0.289-0.242-0.378-0.422-0.088-0.182-0.132-0.393-0.132-0.633s0.044-0.453 0.132-0.636c0.089-0.185 0.212-0.328 0.37-0.431 0.159-0.104 0.345-0.156 0.557-0.156 0.122 0 0.243 0.020 0.363 0.061s0.228 0.107 0.326 0.199c0.098 0.091 0.176 0.211 0.234 0.361s0.087 0.334 0.087 0.554v0.153h-1.811v-0.312h1.444c0-0.133-0.026-0.251-0.080-0.355-0.052-0.104-0.126-0.186-0.223-0.246s-0.209-0.090-0.34-0.090c-0.144 0-0.268 0.036-0.373 0.107-0.104 0.070-0.184 0.162-0.24 0.275s-0.084 0.235-0.084 0.364v0.208c0 0.177 0.031 0.328 0.092 0.451 0.062 0.122 0.148 0.216 0.259 0.28 0.11 0.063 0.238 0.095 0.384 0.095 0.095 0 0.18-0.013 0.257-0.040s0.144-0.068 0.2-0.122c0.056-0.055 0.099-0.123 0.13-0.205l0.349 0.098c-0.037 0.118-0.098 0.222-0.185 0.312-0.087 0.089-0.194 0.158-0.321 0.208-0.127 0.049-0.271 0.073-0.43 0.073z"></path>
<path fill="#84c225" d="M26.042 19.817v1.413h-0.361v-2.35h0.349v0.367h0.031c0.055-0.119 0.139-0.215 0.251-0.288 0.112-0.073 0.257-0.11 0.434-0.11 0.159 0 0.298 0.033 0.418 0.098s0.212 0.162 0.278 0.294c0.066 0.131 0.099 0.296 0.099 0.496v1.493h-0.361v-1.469c0-0.185-0.048-0.328-0.144-0.431-0.096-0.104-0.227-0.156-0.395-0.156-0.115 0-0.218 0.025-0.309 0.075-0.090 0.050-0.161 0.123-0.213 0.219s-0.078 0.212-0.078 0.349z"></path>
<path fill="#84c225" d="M28.983 21.28c-0.22 0-0.41-0.052-0.569-0.156s-0.281-0.247-0.367-0.43c-0.086-0.183-0.128-0.391-0.128-0.626 0-0.239 0.044-0.449 0.132-0.632 0.089-0.184 0.212-0.327 0.37-0.43 0.159-0.104 0.345-0.156 0.557-0.156 0.165 0 0.314 0.031 0.447 0.092s0.241 0.147 0.326 0.257c0.085 0.11 0.137 0.239 0.158 0.385h-0.361c-0.028-0.107-0.089-0.202-0.184-0.285-0.094-0.084-0.22-0.125-0.379-0.125-0.141 0-0.264 0.037-0.37 0.11-0.105 0.072-0.187 0.175-0.246 0.307-0.058 0.132-0.087 0.286-0.087 0.463 0 0.181 0.029 0.34 0.086 0.474 0.058 0.135 0.14 0.239 0.245 0.314 0.106 0.074 0.23 0.112 0.373 0.112 0.094 0 0.179-0.016 0.255-0.049s0.141-0.080 0.194-0.141c0.053-0.061 0.091-0.135 0.113-0.22h0.361c-0.020 0.139-0.071 0.264-0.151 0.375-0.080 0.11-0.185 0.198-0.317 0.263-0.131 0.064-0.282 0.096-0.456 0.096z"></path>
<path fill="#84c225" d="M30.495 22.112c-0.061 0-0.116-0.005-0.164-0.015-0.048-0.009-0.081-0.018-0.099-0.028l0.092-0.318c0.088 0.022 0.165 0.031 0.233 0.024s0.127-0.036 0.179-0.090c0.053-0.053 0.101-0.139 0.145-0.259l0.067-0.184-0.869-2.362h0.392l0.649 1.872h0.025l0.649-1.872h0.391l-0.997 2.692c-0.045 0.121-0.101 0.222-0.167 0.301-0.066 0.081-0.143 0.14-0.231 0.179-0.087 0.039-0.185 0.058-0.294 0.058z"></path>
<path fill="#fff" d="M18.705 11.077v-4.028h0.712v1.507h0.029c0.037-0.073 0.088-0.151 0.155-0.234 0.067-0.084 0.157-0.155 0.271-0.214 0.114-0.060 0.26-0.090 0.437-0.090 0.233 0 0.444 0.060 0.631 0.179 0.189 0.118 0.338 0.293 0.448 0.525 0.111 0.231 0.167 0.514 0.167 0.85 0 0.332-0.054 0.614-0.163 0.846s-0.257 0.409-0.445 0.531c-0.188 0.122-0.4 0.183-0.637 0.183-0.173 0-0.317-0.029-0.431-0.087s-0.206-0.127-0.275-0.208c-0.068-0.083-0.121-0.161-0.159-0.234h-0.041v0.476h-0.7zM19.403 9.566c0 0.195 0.028 0.366 0.083 0.513 0.056 0.147 0.137 0.262 0.242 0.344 0.106 0.081 0.235 0.122 0.385 0.122 0.157 0 0.289-0.042 0.395-0.126 0.106-0.085 0.186-0.201 0.24-0.348 0.055-0.148 0.083-0.317 0.083-0.505 0-0.188-0.027-0.354-0.081-0.5s-0.134-0.26-0.24-0.342c-0.106-0.083-0.239-0.124-0.397-0.124-0.152 0-0.281 0.040-0.387 0.12s-0.187 0.192-0.242 0.336c-0.054 0.144-0.081 0.314-0.081 0.509z"></path>
<path fill="#fff" d="M22.597 7.049v4.028h-0.712v-4.028h0.712z"></path>
<path fill="#fff" d="M23.922 11.138c-0.191 0-0.364-0.034-0.517-0.102-0.152-0.069-0.273-0.172-0.362-0.307-0.088-0.135-0.132-0.302-0.132-0.5 0-0.17 0.031-0.311 0.094-0.423s0.149-0.201 0.258-0.267c0.109-0.067 0.231-0.117 0.368-0.151 0.138-0.035 0.28-0.061 0.427-0.077 0.177-0.018 0.321-0.035 0.431-0.049 0.11-0.016 0.19-0.039 0.24-0.071 0.051-0.033 0.077-0.083 0.077-0.151v-0.012c0-0.148-0.044-0.263-0.132-0.344s-0.214-0.122-0.38-0.122c-0.174 0-0.313 0.038-0.415 0.114-0.101 0.076-0.169 0.166-0.205 0.269l-0.665-0.094c0.052-0.184 0.139-0.337 0.26-0.46 0.121-0.125 0.268-0.218 0.443-0.279 0.174-0.063 0.367-0.094 0.578-0.094 0.146 0 0.29 0.017 0.435 0.051s0.276 0.090 0.395 0.169c0.119 0.077 0.215 0.183 0.287 0.317 0.073 0.134 0.11 0.301 0.11 0.502v2.022h-0.684v-0.415h-0.024c-0.043 0.084-0.104 0.163-0.183 0.236-0.077 0.072-0.175 0.13-0.293 0.175-0.117 0.043-0.254 0.065-0.411 0.065zM24.107 10.615c0.143 0 0.267-0.028 0.372-0.085 0.105-0.058 0.186-0.134 0.242-0.228 0.058-0.094 0.087-0.197 0.087-0.309v-0.356c-0.022 0.018-0.060 0.035-0.114 0.051-0.052 0.016-0.111 0.030-0.177 0.041s-0.13 0.022-0.195 0.031c-0.064 0.009-0.12 0.017-0.167 0.024-0.106 0.014-0.201 0.038-0.285 0.071s-0.15 0.079-0.199 0.138c-0.049 0.058-0.073 0.132-0.073 0.224 0 0.131 0.048 0.23 0.144 0.297s0.218 0.1 0.366 0.1z"></path>
<path fill="#fff" d="M27.273 11.136c-0.302 0-0.561-0.066-0.777-0.199-0.215-0.132-0.381-0.315-0.498-0.549-0.115-0.235-0.173-0.505-0.173-0.81 0-0.307 0.059-0.578 0.177-0.812 0.118-0.236 0.285-0.42 0.5-0.551 0.216-0.132 0.472-0.199 0.767-0.199 0.245 0 0.462 0.045 0.651 0.136 0.19 0.089 0.342 0.216 0.454 0.38 0.113 0.163 0.177 0.353 0.193 0.57h-0.68c-0.028-0.146-0.093-0.267-0.197-0.364-0.102-0.098-0.239-0.148-0.411-0.148-0.146 0-0.273 0.039-0.384 0.118-0.11 0.077-0.196 0.189-0.258 0.334-0.060 0.146-0.090 0.32-0.090 0.523 0 0.206 0.030 0.383 0.090 0.531 0.060 0.147 0.145 0.26 0.254 0.34 0.11 0.079 0.239 0.118 0.387 0.118 0.105 0 0.199-0.020 0.281-0.059 0.084-0.041 0.154-0.099 0.21-0.175s0.095-0.168 0.116-0.277h0.68c-0.017 0.214-0.080 0.403-0.189 0.568-0.109 0.164-0.257 0.292-0.445 0.385-0.188 0.092-0.408 0.138-0.661 0.138z"></path>
<path fill="#fff" d="M29.524 10.129l-0.002-0.859h0.114l1.086-1.213h0.832l-1.335 1.487h-0.148l-0.547 0.586zM28.875 11.077v-4.028h0.712v4.028h-0.712zM30.771 11.077l-0.983-1.375 0.48-0.502 1.355 1.876h-0.851z"></path>
<path fill="#fff" d="M18.705 16.615v-4.028h0.712v1.507h0.029c0.037-0.073 0.088-0.151 0.155-0.234 0.067-0.084 0.157-0.155 0.271-0.214 0.114-0.060 0.26-0.090 0.437-0.090 0.233 0 0.444 0.060 0.631 0.179 0.189 0.118 0.338 0.293 0.448 0.525 0.111 0.231 0.167 0.514 0.167 0.85 0 0.332-0.054 0.614-0.163 0.846s-0.257 0.409-0.445 0.531c-0.188 0.122-0.4 0.183-0.637 0.183-0.173 0-0.317-0.029-0.431-0.087s-0.206-0.127-0.275-0.208c-0.068-0.083-0.121-0.161-0.159-0.234h-0.041v0.476h-0.7zM19.403 15.105c0 0.195 0.028 0.366 0.083 0.513 0.056 0.147 0.137 0.262 0.242 0.344 0.106 0.081 0.235 0.122 0.385 0.122 0.157 0 0.289-0.042 0.395-0.126 0.106-0.085 0.186-0.201 0.24-0.348 0.055-0.148 0.083-0.317 0.083-0.505 0-0.188-0.027-0.354-0.081-0.5s-0.134-0.26-0.24-0.342c-0.106-0.083-0.239-0.124-0.397-0.124-0.152 0-0.281 0.040-0.387 0.12s-0.187 0.192-0.242 0.336c-0.054 0.144-0.081 0.314-0.081 0.509z"></path>
<path fill="#fff" d="M23.203 16.674c-0.295 0-0.551-0.065-0.767-0.195s-0.384-0.311-0.503-0.545c-0.118-0.233-0.177-0.506-0.177-0.818s0.059-0.585 0.177-0.82c0.119-0.235 0.287-0.417 0.503-0.547s0.472-0.195 0.767-0.195c0.295 0 0.551 0.065 0.767 0.195s0.384 0.312 0.502 0.547c0.119 0.235 0.179 0.508 0.179 0.82s-0.060 0.585-0.179 0.818c-0.118 0.233-0.285 0.415-0.502 0.545s-0.472 0.195-0.767 0.195zM23.207 16.104c0.16 0 0.294-0.044 0.401-0.132 0.108-0.089 0.188-0.209 0.24-0.358 0.054-0.149 0.081-0.316 0.081-0.5 0-0.185-0.027-0.352-0.081-0.502-0.052-0.151-0.132-0.271-0.24-0.36s-0.241-0.134-0.401-0.134c-0.164 0-0.3 0.045-0.409 0.134-0.108 0.089-0.188 0.209-0.242 0.36-0.052 0.149-0.079 0.317-0.079 0.502 0 0.184 0.026 0.35 0.079 0.5 0.054 0.149 0.134 0.269 0.242 0.358 0.109 0.088 0.245 0.132 0.409 0.132z"></path>
<path fill="#fff" d="M25.446 13.594l0.61 1.115 0.62-1.115h0.753l-0.911 1.511 0.926 1.51h-0.749l-0.639-1.088-0.633 1.088h-0.755l0.92-1.511-0.897-1.511h0.755z"></path>
<path fill="#1f1a17" d="M0.154 12.376l14.769-0v9.402l-7.385 3.761-7.385-13.162z"></path>
<path fill="#383431" d="M0.154 21.778l7.385 3.761v-13.174l-7.385 0.012v9.402z"></path>
<path fill="#4d4948" d="M0.154 12.376l7.385-3.761 7.385 3.761-7.385 3.761-7.385-3.761z"></path>
<path fill="#383431" d="M7.6 12.355c-4.508 0-4.153-1.060 1.057-3.17l2.915 1.484c-0.943 0.479-2.266 1.041-3.972 1.686z"></path>
<path fill="#84c225" d="M7.538 12.376c-4.915 0-7.385-2.515-7.385-7.521 4.915 0 7.385 2.515 7.385 7.521z"></path>
<path fill="#f8c300" d="M7.538 8.615c3.683 0 5.538-1.89 5.538-5.641-3.683 0-5.538 1.89-5.538 5.641z"></path>
<path fill="#db214c" d="M7.538 5.865c-2.517 0-3.692-1.197-3.692-3.761 2.517 0 3.692 1.197 3.692 3.761z"></path>
<path fill="#ff6dc1" d="M10.308 8.615c0.51 0 0.923 0.421 0.923 0.94s-0.413 0.94-0.923 0.94-0.923-0.421-0.923-0.94c0-0.519 0.413-0.94 0.923-0.94z"></path>
<path fill="#000" opacity="0.1" d="M0.154 4.855l7.385 7.521c-4.915 0-7.385-2.515-7.385-7.521z"></path>
<path fill="#000" opacity="0.1" d="M13.077 2.974l-5.538 5.641c3.683 0 5.538-1.89 5.538-5.641z"></path>
<path fill="#000" opacity="0.1" d="M3.846 2.105l3.692 3.761c-2.517 0-3.692-1.197-3.692-3.761z"></path>
</svg>
