<!-- Generated by IcoMoon.io -->
<svg version="1.1" xmlns="http://www.w3.org/2000/svg" width="33" height="32" viewBox="0 0 33 32">
<title>cloud</title>
<path fill="#fff" d="M26.732 2.667c1.804 0 3.268 1.464 3.268 3.268v20.13c0 1.804-1.464 3.268-3.268 3.268h-20.13c-1.804 0-3.268-1.464-3.268-3.268v-20.13c0-1.804 1.464-3.268 3.268-3.268h20.13zM6.406 16.729l-0.156 1.146 0.156 1.146c0 0.104 0.156 0.104 0.156 0l0.156-1.146-0.156-1.146c0-0.156-0.156-0.156-0.156 0zM7.344 16c0-0.156-0.156-0.156-0.156 0l-0.26 1.875 0.208 1.823c0 0.156 0.208 0.156 0.208 0l0.208-1.823-0.208-1.875zM10.417 14.437l-0.156 3.438 0.104 2.083c0 0.417 0.365 0.417 0.365 0l0.208-2.083-0.208-3.438c0-0.26-0.313-0.26-0.313 0zM8.802 15.583l-0.208 2.292 0.156 2.083c0 0.312 0.26 0.312 0.26 0l0.208-2.083-0.208-2.292c0-0.156-0.208-0.156-0.208 0zM12.448 19.958l0.156-2.083-0.156-4.583c0-0.313-0.365-0.313-0.365 0l-0.156 4.583 0.104 2.083c0 0.417 0.417 0.417 0.417 0zM15.99 19.958l0.104-2.083-0.104-5.313c0-0.365-0.521-0.365-0.521 0l-0.104 5.313 0.104 2.083c0 0.417 0.521 0.417 0.521 0zM14.219 19.958l0.156-2.083-0.156-4.635c0-0.313-0.469-0.313-0.469 0l-0.104 4.635 0.104 2.083c0 0.417 0.469 0.417 0.469 0zM9.896 19.958l0.156-2.083-0.156-2.135c0-0.156-0.313-0.156-0.313 0l-0.156 2.135 0.156 2.083c0 0.365 0.313 0.365 0.313 0zM8.177 19.958l0.208-2.083-0.208-2.24c0-0.156-0.208-0.156-0.208 0l-0.208 2.24 0.208 2.083c0 0.208 0.208 0.208 0.208 0zM14.635 13.448l-0.104 4.427 0.052 2.083c0 0.417 0.521 0.417 0.521 0l0.104-2.083-0.104-4.427c0-0.365-0.469-0.365-0.469 0zM11.615 19.958l0.156-2.083-0.156-4.219c0-0.313-0.365-0.313-0.365 0l-0.156 4.219 0.104 2.083c0 0.417 0.417 0.417 0.417 0zM13.333 19.958l0.156-2.083-0.156-4.74c0-0.313-0.417-0.313-0.417 0l-0.156 4.74 0.156 2.083c0 0.417 0.417 0.417 0.417 0zM23.542 15.323c-0.26-2.969-3.333-4.896-6.146-3.802-0.208 0.104-0.26 0.156-0.26 0.313v8.125c0 0.156 0.104 0.312 0.26 0.312h7.135c1.406 0 2.552-1.146 2.552-2.552 0-1.927-1.823-2.969-3.542-2.396zM16.354 12.094l-0.156 5.781 0.156 2.083c0 0.417 0.521 0.417 0.521 0l0.156-2.083-0.156-5.781c0-0.365-0.521-0.365-0.521 0z"></path>
</svg>
