<svg xmlns="http://www.w3.org/2000/svg" width="143" height="48" fill="none"><g clip-path="url(#a)"><path fill="#EA4335" d="M60.891 24.616c0 6.662-5.212 11.572-11.608 11.572-6.397 0-11.61-4.91-11.61-11.572 0-6.71 5.213-11.572 11.61-11.572 6.396 0 11.608 4.862 11.608 11.572Zm-5.081 0c0-4.164-3.021-7.012-6.527-7.012-3.507 0-6.527 2.848-6.527 7.012 0 4.121 3.02 7.012 6.527 7.012 3.506 0 6.527-2.896 6.527-7.012Z"/><path fill="#FBBC05" d="M85.935 24.616c0 6.662-5.212 11.572-11.609 11.572-6.396 0-11.609-4.91-11.609-11.572 0-6.705 5.213-11.572 11.61-11.572 6.396 0 11.608 4.862 11.608 11.572Zm-5.082 0c0-4.164-3.02-7.012-6.527-7.012-3.506 0-6.527 2.848-6.527 7.012 0 4.121 3.021 7.012 6.527 7.012 3.506 0 6.527-2.896 6.527-7.012Z"/><path fill="#4285F4" d="M109.935 13.743v20.775c0 8.546-5.04 12.037-10.999 12.037-5.608 0-8.984-3.752-10.257-6.82l4.424-1.841C93.891 39.777 95.822 42 98.931 42c3.814 0 6.178-2.353 6.178-6.783v-1.664h-.178c-1.137 1.404-3.328 2.63-6.094 2.63-5.786 0-11.087-5.04-11.087-11.526 0-6.532 5.301-11.614 11.087-11.614 2.76 0 4.952 1.227 6.094 2.588h.178v-1.883h4.826v-.005Zm-4.466 10.914c0-4.074-2.719-7.053-6.178-7.053-3.506 0-6.443 2.979-6.443 7.053 0 4.033 2.937 6.97 6.443 6.97 3.459 0 6.178-2.937 6.178-6.97Z"/><path fill="#34A853" d="M117.891 1.565v33.913h-4.956V1.565h4.956Z"/><path fill="#EA4335" d="m137.206 28.424 3.944 2.63c-1.273 1.883-4.34 5.129-9.641 5.129-6.574 0-11.484-5.082-11.484-11.573 0-6.881 4.952-11.572 10.915-11.572 6.005 0 8.943 4.78 9.903 7.362l.527 1.315-15.47 6.407c1.184 2.322 3.026 3.506 5.609 3.506 2.588 0 4.382-1.273 5.697-3.204Zm-12.141-4.163 10.341-4.294c-.569-1.445-2.28-2.452-4.294-2.452-2.582 0-6.177 2.28-6.047 6.746Z"/><path fill="#4285F4" d="M18.912 21.605v-4.91h16.544c.162.856.246 1.869.246 2.964 0 3.684-1.007 8.238-4.252 11.484-3.157 3.287-7.19 5.04-12.533 5.04-9.902 0-18.23-8.067-18.23-17.97C.688 8.312 9.016.246 18.918.246c5.479 0 9.381 2.15 12.313 4.952L27.766 8.66c-2.102-1.972-4.951-3.506-8.854-3.506-7.231 0-12.887 5.828-12.887 13.059 0 7.231 5.656 13.059 12.887 13.059 4.69 0 7.362-1.883 9.073-3.595 1.388-1.388 2.301-3.37 2.661-6.078l-11.734.005Z"/></g><defs><clipPath id="a"><path fill="#fff" d="M.5 0h141.913v48H.5z"/></clipPath></defs></svg>