<!-- Generated by IcoMoon.io -->
<svg version="1.1" xmlns="http://www.w3.org/2000/svg" width="101" height="32" viewBox="0 0 101 32">
<title>kmbs</title>
<path fill="#fff" d="M98.106 22.451c-0.238-0.739-0.576-1.438-1.074-2.077-0.755-1.039-2.127-2.317-4.076-3.915-0.358-0.34-0.636-0.579-0.875-0.759 0 0-0.119-0.060-0.218-0.16-1.77-1.498-2.645-2.537-2.645-3.056 0-0.3 0.060-0.579 0.298-0.759 0.179-0.24 0.457-0.34 0.756-0.34 0.397 0 1.133 0.22 2.187 0.699 1.034 0.459 1.889 0.699 2.584 0.699 0.875 0 1.551-0.419 2.068-1.158 0.457-0.739 0.735-1.838 0.735-3.216 0-0.12-0.059-0.799-0.059-0.799-0.498 0.28-1.034 0.459-1.531 0.579-0.517 0.12-1.034 0.24-1.571 0.24-0.437 0-1.252-0.12-2.406-0.34-1.153-0.24-2.067-0.359-2.823-0.359-1.789 0-3.221 0.519-4.295 1.558-1.094 0.979-1.671 2.357-1.671 4.035 0 0.699 0.099 1.318 0.298 1.957 0.179 0.639 0.418 1.258 0.756 1.857 0.576 1.039 2.127 2.656 4.593 4.794 0.577 0.519 1.034 0.919 1.372 1.139 0.637 0.579 1.094 1.098 1.372 1.558 0.219 0.459 0.397 0.919 0.397 1.398 0 0.579-0.238 1.099-0.696 1.478-0.517 0.419-1.094 0.599-1.769 0.599-0.974 0-1.731-0.28-2.366-0.979-0.637-0.619-0.915-1.438-0.915-2.477 0-0.16 0-0.399 0.060-0.639 0-0.16 0.059-0.399 0.119-0.639-1.61 0.859-2.744 1.618-3.44 2.257-0.636 0.619-1.094 1.318-1.372 2.197 1.253 1.278 2.645 2.237 4.135 2.876 1.432 0.639 2.983 0.979 4.534 0.979 2.425 0 4.374-0.579 5.805-1.778 1.432-1.218 2.128-2.836 2.128-4.853-0.060-0.979-0.159-1.778-0.398-2.596zM72.139 8.63c-1.133 0-2.147 0.16-3.022 0.479s-1.67 0.779-2.167 1.418v-5.453c0-0.779 0.079-1.538 0.239-2.337 0.139-0.779 0.378-1.558 0.696-2.317h-6.104c-1.074 0-1.829 0.2-2.247 0.619s-0.895 1.518-1.451 3.276c0.835 0.080 1.392 0.28 1.69 0.639s0.418 1.059 0.418 2.157v20.093c0 0.919-0.040 1.718-0.159 2.437-0.119 0.699-0.239 1.278-0.497 1.997 1.153 0 2.326 0 3.48 0 1.292 0 2.187 0.040 2.625-0.34s0.696-1.138 0.775-2.237c1.471 2.397 3.38 2.656 5.925 2.577 0.636-0.020 1.233-0.080 1.829-0.18 1.551-0.26 2.943-0.899 4.076-2.477 1.511-2.077 2.267-4.973 2.267-8.648 0-3.735-0.736-6.631-2.187-8.668-1.432-2.017-3.499-3.036-6.184-3.036zM72.656 26.126c-0.557 1.278-1.432 1.917-2.605 1.917-1.113 0-1.949-0.579-2.505-1.778-0.577-1.178-0.835-2.936-0.835-5.253v-2.217c0-2.157 0.278-3.795 0.855-4.913s1.412-1.698 2.505-1.698c1.153 0 2.028 0.659 2.585 1.957s0.835 3.296 0.835 5.972c0 2.716-0.278 4.714-0.835 6.012zM55.457 24.868v-8.688c0-2.617-0.497-4.554-1.63-5.872-1.114-1.298-2.764-1.957-4.991-1.957-1.292 0-2.446 0.28-3.46 0.819-1.034 0.539-1.829 1.318-2.426 2.317-0.577-1.039-1.352-1.837-2.326-2.357s-2.108-0.779-3.44-0.779c-1.511 0-2.804 0.32-3.877 0.979-1.074 0.639-1.889 1.578-2.466 2.836 0.060-0.559 0.119-1.139 0.199-1.718s0.159-1.178 0.278-1.798c-0.318 0.1-0.656 0.16-1.014 0.2-0.378 0.040-0.775 0.060-1.213 0.060-0.060 0-0.278 0-0.696-0.020s-0.795-0.020-1.133-0.020c-1.074 0-1.809 0.2-2.207 0.599s-0.875 1.578-1.392 3.575c0.756 0.020 1.233 0.16 1.491 0.399s0.338 0.859 0.338 1.858v11.684c0 0.779-0.040 1.538-0.199 2.317-0.139 0.779-0.338 1.538-0.616 2.297h5.846c1.014 0 1.73-0.16 2.128-0.579 0.398-0.399 0.875-1.498 1.412-3.316-0.775-0.1-1.332-0.3-1.63-0.639-0.278-0.34-0.457-1.059-0.457-2.157v-7.849c0-1.838 0.259-3.116 0.676-3.875 0.437-0.739 1.173-1.118 2.167-1.118 0.875 0 1.571 0.3 1.968 0.899s0.676 1.518 0.676 2.796v11.205c0 0.599-0.139 1.258-0.298 2.057s-0.457 1.798-0.756 2.557h5.846c1.014 0 1.71-0.16 2.127-0.579 0.398-0.399 0.875-1.518 1.412-3.335-0.776-0.060-1.352-0.26-1.63-0.619-0.278-0.34-0.477-1.059-0.477-2.157v-7.829c0-1.838 0.258-3.116 0.696-3.875 0.437-0.739 1.173-1.118 2.207-1.118 0.855 0 1.531 0.3 1.949 0.899 0.398 0.599 0.656 1.518 0.656 2.796v11.205c0 0.639-0.119 1.298-0.278 2.077s-0.437 1.778-0.736 2.537h5.846c1.014 0 1.71-0.16 2.127-0.579 0.398-0.399 0.875-1.518 1.412-3.335-0.756-0.060-1.352-0.26-1.63-0.619s-0.477-1.078-0.477-2.177zM20.662 26.945c-0.477-0.399-0.895-1.059-1.233-2.017l-4.175-10.965 0.716-0.759c0.457-0.479 1.133-0.759 2.048-0.819 0.378-0.020 0.636-0.060 0.795-0.1 0.577-0.16 1.014-0.479 1.292-0.939s0.557-1.398 0.835-2.836c-0.398 0.16-0.815 0.3-1.273 0.36-0.457 0.080-1.193 0.12-2.187 0.12-1.113 0-1.988 0.16-2.664 0.479-0.656 0.32-1.233 0.879-1.809 1.638l-3.579 5.073v-11.125c0-0.779 0.040-1.538 0.199-2.317s0.338-1.558 0.636-2.317h-5.985c-1.094 0-1.849 0.2-2.267 0.619s-0.895 1.518-1.432 3.276c0.815 0.060 1.372 0.28 1.67 0.639s0.457 1.079 0.457 2.157v19.853c0 0.639-0.080 1.298-0.239 2.077s-0.398 1.778-0.696 2.537h6.005c1.054 0 1.809-0.18 2.227-0.599 0.437-0.419 0.915-1.498 1.451-3.296-0.835-0.080-1.352-0.3-1.63-0.639s-0.378-1.059-0.378-2.157v-4.154l1.432-1.818 3.102 8.788c0.119 0.34 0.179 0.639 0.239 0.879 0.060 0.26 0.080 0.479 0.080 0.699 0 0.34-0.060 0.679-0.179 1.079s-0.278 0.739-0.497 1.238h5.368c1.113 0 1.929-0.24 2.446-0.799s0.915-1.718 1.233-3.216h-0.199c-0.736-0.040-1.332-0.24-1.809-0.639z"></path>
</svg>
