<!-- Generated by IcoMoon.io -->
<svg version="1.1" xmlns="http://www.w3.org/2000/svg" width="33" height="32" viewBox="0 0 33 32">
<title>medium</title>
<path fill="#fff" d="M30 16c0 7.364-5.97 13.333-13.333 13.333s-13.333-5.97-13.333-13.333c0-7.364 5.97-13.333 13.333-13.333s13.333 5.97 13.333 13.333zM9.662 11.13c0.163 0.15 0.246 0.371 0.224 0.594v8.042c0.048 0.29-0.041 0.586-0.241 0.798l-1.867 2.318v0.306h5.295v-0.306l-1.867-2.318c-0.201-0.212-0.296-0.506-0.257-0.798v-6.955l4.648 10.377h0.539l3.992-10.377v8.271c0 0.221 0 0.263-0.141 0.408l-1.436 1.427v0.306h6.972v-0.306l-1.386-1.393c-0.122-0.095-0.183-0.252-0.158-0.408v-10.233c-0.025-0.155 0.035-0.312 0.158-0.408l1.419-1.393v-0.306h-4.913l-3.502 8.942-3.984-8.942h-5.154v0.306l1.66 2.046z"></path>
</svg>
