<!-- Generated by IcoMoon.io -->
<svg version="1.1" xmlns="http://www.w3.org/2000/svg" width="33" height="32" viewBox="0 0 33 32">
<title>notion</title>
<path fill="#fff" d="M7.745 7.342c0.829 0.674 1.141 0.622 2.698 0.519l14.683-0.882c0.311 0 0.053-0.311-0.051-0.362l-2.439-1.763c-0.467-0.363-1.090-0.778-2.283-0.674l-14.218 1.037c-0.519 0.051-0.622 0.311-0.416 0.518l2.025 1.607zM8.626 10.764v15.449c0 0.83 0.415 1.141 1.349 1.090l16.137-0.934c0.934-0.051 1.039-0.623 1.039-1.297v-15.346c0-0.673-0.259-1.037-0.831-0.985l-16.863 0.985c-0.622 0.052-0.83 0.364-0.83 1.037zM24.556 11.593c0.103 0.467 0 0.934-0.468 0.986l-0.777 0.155v11.406c-0.675 0.363-1.298 0.57-1.816 0.57-0.83 0-1.039-0.259-1.661-1.037l-5.086-7.984v7.725l1.609 0.363c0 0 0 0.933-1.298 0.933l-3.579 0.208c-0.104-0.208 0-0.726 0.363-0.829l0.934-0.259v-10.214l-1.297-0.104c-0.104-0.467 0.155-1.14 0.882-1.193l3.84-0.259 5.293 8.088v-7.155l-1.349-0.155c-0.103-0.571 0.311-0.986 0.83-1.037l3.581-0.208zM4.941 3.817l14.789-1.089c1.816-0.156 2.283-0.051 3.425 0.778l4.721 3.318c0.779 0.571 1.039 0.726 1.039 1.348v18.198c0 1.14-0.415 1.815-1.868 1.918l-17.174 1.037c-1.090 0.052-1.609-0.103-2.18-0.83l-3.476-4.511c-0.623-0.83-0.882-1.451-0.882-2.178v-16.175c0-0.933 0.416-1.711 1.608-1.814z"></path>
</svg>
