<!-- Generated by IcoMoon.io -->
<svg version="1.1" xmlns="http://www.w3.org/2000/svg" width="205" height="32" viewBox="0 0 205 32">
<title>reactor</title>
<path fill="#fff" d="M82.133 1.625l11.733 28.75h-6.844l-1.956-5.75h-11.733l-2.933 5.75h-5.867l11.733-28.75h5.867zM83.111 18.875l-3.911-9.583-3.911 9.583h7.822z"></path>
<path fill="#fff" d="M29.333 1.625h20.533v5.75h-14.667v5.75h8.8v5.75h-8.8v5.75h14.667v5.75h-20.533c0-9.583 0-19.167 0-28.75z"></path>
<path fill="#e51a4b" d="M61.6 7.375h-5.867v5.733h5.867v-5.733z"></path>
<path fill="#e51a4b" d="M61.6 18.875h-5.867v5.75h5.867v-5.75z"></path>
<path fill="#fff" d="M119.289 26.542c-0.978 0.958-2.933 2.875-4.889 2.875-1.956 0.958-3.911 1.917-5.867 1.917-3.911 0-7.822-1.917-10.756-4.792s-4.889-6.708-4.889-10.542 1.955-7.667 4.889-10.542c2.933-2.875 6.845-4.792 10.756-4.792 1.956 0 3.911 0.958 5.867 1.917 1.956 0 3.911 1.917 4.889 2.875l-3.911 3.833c-0.978-0.958-1.955-0.958-2.933-1.917-0.978 0-2.933-0.958-3.911-0.958-2.933 0-4.889 0.958-6.844 2.875-0.978 1.917-2.933 3.833-2.933 6.708s1.955 4.792 2.933 6.708c1.955 1.917 3.911 2.875 6.844 2.875 0.978 0 2.933-0.958 3.911-0.958 0.978-0.958 1.956-0.958 2.933-1.917l3.911 3.833z"></path>
<path fill="#fff" d="M122.222 1.625v5.75h8.8v23h5.867v-23h8.8v-5.75c-7.823 0-15.645 0-23.467 0z"></path>
<path fill="#fff" d="M173.067 26.542c-0.977 0.958-2.933 2.875-4.889 2.875-1.955 0.958-3.911 1.917-5.867 1.917-3.911 0-7.821-1.917-10.755-4.792s-4.889-6.708-4.889-10.542 1.956-7.667 4.889-10.542c2.933-2.875 6.844-4.792 10.755-4.792 3.912 0 7.823 1.917 10.756 4.792s4.889 6.708 4.889 10.542c0 1.917-0.979 3.833-1.956 5.75 0 1.917-1.956 3.833-2.933 4.792zM166.223 24.625c0.977-0.958 1.955-0.958 2.933-1.917 0.977-0.958 0.977-1.917 1.955-2.875 0-0.958 0.979-2.875 0.979-3.833 0-2.875-0.979-4.792-2.933-6.708-1.956-1.917-3.912-2.875-6.845-2.875s-4.888 0.958-6.844 2.875c-1.956 1.917-2.933 3.833-2.933 6.708s0.977 4.792 2.933 6.708c1.956 1.917 3.911 2.875 6.844 2.875 0.979 0 2.933-0.958 3.912-0.958z"></path>
<path fill="#fff" d="M0.978 1.625c4.889 0 8.8 0 13.689 0 1.956 0 4.889 0.958 6.844 2.875s2.933 4.792 2.933 6.708c0 2.875-0.978 5.75-2.933 7.667-0.978 0.958-1.955 1.917-2.933 1.917l4.889 9.583h-6.844l-4.889-8.625h-4.889v8.625h-5.867v-28.75zM6.844 7.375v8.625h7.822c0.978 0 1.956-0.958 2.933-0.958 0-0.958 0.978-1.917 0.978-2.875 0-1.917-0.978-2.875-0.978-3.833-0.978 0-1.956-0.958-2.933-0.958h-7.822z"></path>
<path fill="#fff" d="M181.867 1.625c4.889 0 8.8 0 13.689 0 1.955 0 4.888 0.958 6.844 2.875s2.933 4.792 2.933 6.708c0 2.875-0.977 5.75-2.933 7.667-0.977 0.958-1.956 1.917-2.933 1.917l4.889 9.583h-6.845l-4.888-8.625h-4.889v8.625h-5.867v-28.75zM187.733 7.375v8.625h7.823c0.977 0 1.955-0.958 2.933-0.958 0-0.958 0.977-1.917 0.977-2.875 0-1.917-0.977-2.875-0.977-3.833-0.979 0-1.956-0.958-2.933-0.958h-7.823z"></path>
</svg>
