<!-- Generated by IcoMoon.io -->
<svg version="1.1" xmlns="http://www.w3.org/2000/svg" width="34" height="32" viewBox="0 0 34 32">
<title>slack</title>
<path fill="#fff" d="M7.58 20.229c0 1.86-1.509 3.363-3.377 3.363s-3.377-1.503-3.377-3.363c0-1.86 1.509-3.363 3.377-3.363h3.377v3.363zM9.268 20.229c0-1.86 1.509-3.363 3.377-3.363s3.377 1.503 3.377 3.363v8.408c0 1.86-1.509 3.363-3.377 3.363s-3.377-1.503-3.377-3.363v-8.408z"></path>
<path fill="#fff" d="M12.645 6.726c-1.868 0-3.377-1.503-3.377-3.363s1.509-3.363 3.377-3.363c1.868 0 3.377 1.503 3.377 3.363v3.363h-3.377zM12.645 8.433c1.868 0 3.377 1.503 3.377 3.363s-1.509 3.363-3.377 3.363h-8.468c-1.868 0-3.377-1.503-3.377-3.363s1.509-3.363 3.377-3.363h8.468z"></path>
<path fill="#fff" d="M26.179 11.796c0-1.86 1.509-3.363 3.377-3.363s3.377 1.503 3.377 3.363c0 1.86-1.509 3.363-3.377 3.363h-3.377v-3.363zM24.491 11.796c0 1.86-1.509 3.363-3.377 3.363s-3.377-1.503-3.377-3.363v-8.433c0-1.86 1.509-3.363 3.377-3.363s3.377 1.503 3.377 3.363v8.433z"></path>
<path fill="#fff" d="M21.114 25.274c1.868 0 3.377 1.503 3.377 3.363s-1.509 3.363-3.377 3.363c-1.868 0-3.377-1.503-3.377-3.363v-3.363h3.377zM21.114 23.592c-1.868 0-3.377-1.503-3.377-3.363s1.509-3.363 3.377-3.363h8.468c1.868 0 3.377 1.503 3.377 3.363s-1.509 3.363-3.377 3.363h-8.468z"></path>
</svg>
