<!-- Generated by IcoMoon.io -->
<svg version="1.1" xmlns="http://www.w3.org/2000/svg" width="102" height="32" viewBox="0 0 102 32">
<title>tonai</title>
<path fill="#fff" d="M10.785 12.66c-0.318 0.552-0.83 0.946-1.444 1.111-1.265 0.34-2.572-0.416-2.911-1.687s0.415-2.581 1.681-2.922c0.204-0.055 0.412-0.083 0.619-0.083 0.412 0 0.819 0.108 1.185 0.321 0.55 0.319 0.943 0.833 1.108 1.449s0.080 1.259-0.238 1.81zM6.583 3.441c0.798-0.214 1.612-0.306 2.428-0.278-0.043 0.318-0.077 0.614-0.101 0.888-0.706-0.018-1.409 0.062-2.099 0.247-3.938 1.059-6.284 5.137-5.229 9.089 0.034 0.128 0.074 0.254 0.115 0.38l-0.817 0.356c-0.056-0.167-0.108-0.337-0.153-0.507-1.181-4.425 1.445-8.991 5.856-10.177zM11.738 22.359c0.296-0.035 0.563 0.18 0.597 0.477 0.048 0.425 0.093 0.826 0.231 1.317 0.041 0.146 0.090 0.299 0.142 0.461 0.143 0.449 0.305 0.958 0.407 1.584 0.012 0.075 0.022 0.152 0.033 0.229l1.487-0.4-1.329-4.978c-0.193-0.137-0.366-0.303-0.512-0.494l-3.836 1.031 0.98 3.671 1.945 1.51 0.213-0.058c-0.014-0.116-0.029-0.229-0.047-0.336-0.090-0.548-0.239-1.017-0.37-1.43-0.056-0.175-0.108-0.34-0.152-0.497-0.162-0.576-0.214-1.041-0.264-1.49-0.034-0.296 0.179-0.564 0.475-0.598v0zM13.425 19.444c0.186 0.695 0.899 1.108 1.593 0.923l0.474-0.128c-0.335-0.351-0.666-0.714-0.987-1.086-0.671-0.779-1.313-1.615-1.773-2.299l0.483 1.807 0.21 0.783zM7.417 20.519c-0.024-0.090-0.011-0.183 0.035-0.264 0.047-0.081 0.121-0.139 0.21-0.163l4.496-1.209 0.18 0.674-4.496 1.209c-0.089 0.024-0.182 0.011-0.263-0.036s-0.139-0.122-0.162-0.211zM12.532 13.673c-0.587 1.020-1.535 1.75-2.669 2.055-2.341 0.63-4.756-0.769-5.383-3.119s0.767-4.772 3.108-5.402c0.379-0.102 0.763-0.152 1.145-0.152 0.761 0 1.513 0.201 2.191 0.593 1.017 0.589 1.744 1.54 2.048 2.678s0.148 2.327-0.439 3.347zM8.727 14.937c-1.526 0-2.926-1.023-3.339-2.572-0.494-1.848 0.603-3.753 2.444-4.248 1.842-0.495 3.74 0.605 4.233 2.453s-0.603 3.753-2.444 4.248c-0.299 0.080-0.598 0.119-0.894 0.119zM22.478 23.881c-0 0-0.001 0-0.002-0.001-0.622 0-1.025-0.246-1.741-0.718-0.771-0.508-1.687-1.135-2.62-1.926-0.923-0.782-1.915-1.774-2.793-2.793-0.791-0.917-1.566-1.952-1.977-2.635-0.342-0.571-0.296-0.662-0.232-0.788 0.041-0.080 0.095-0.162 0.153-0.253 0.161-0.252 0.38-0.595 0.518-1.061 0.507-1.152 0.607-2.456 0.282-3.675-0.504-1.887-1.971-3.375-3.842-3.905-0.070-0.056-0.114-0.115-0.149-0.193-0.128-0.287-0.228-1 0.026-2.775 0.151-1.057 0.37-2.085 0.558-2.621 0.063-0.18 0.096-0.222 0.102-0.229 0.013-0.001 0.090-0.013 0.303-0.013 0.039 0 0.082 0 0.13 0.001 0.67 0.013 1.903 0.106 2.963 0.258s1.893 0.358 2.697 0.664c0.876 0.334 1.654 0.764 2.248 1.244 0.578 0.466 1.054 1.034 1.592 1.899 0.525 0.844 1.033 1.84 1.36 2.667 0.335 0.847 0.506 1.579 0.618 2.122l0.013 0.061c0.111 0.543 0.207 1.011 0.926 1.739 0.343 0.348 0.841 0.771 1.322 1.181 0.427 0.363 0.869 0.739 1.164 1.030 0.553 0.547 0.524 0.719 0.5 0.858-0.045 0.264-0.2 0.577-0.387 0.78-0.106 0.116-0.235 0.209-0.36 0.3-0.13 0.094-0.253 0.183-0.355 0.3-0.197 0.224-0.366 0.607-0.057 1.157 0.325 0.577 0.728 1.424 0.488 2.11-0.034 0.098-0.113 0.225-0.189 0.348-0.104 0.169-0.212 0.343-0.27 0.536-0.123 0.413 0.025 0.736 0.133 0.973l0.039 0.086c0.068 0.156 0.149 0.375 0.17 0.694 0.013 0.207 0.011 0.613-0.153 1.020-0.112 0.277-0.309 0.605-0.919 0.933-0.576 0.31-1.535 0.624-2.256 0.624zM16.367 26.831c-0.206 0.764-0.368 1.369-0.385 1.882-0.008 0.23 0.015 0.449 0.065 0.658l-2.766-0.683c-0.007-0.392-0.018-0.783-0.038-1.164l2.191-0.589c0.138-0.037 0.256-0.128 0.327-0.252s0.091-0.272 0.054-0.411l-1.277-4.783c0.048 0.003 0.095 0.006 0.143 0.006 0.203 0 0.41-0.027 0.615-0.082l1.079-0.29c0.348 0.333 0.698 0.649 1.043 0.942 0.808 0.684 1.594 1.245 2.294 1.717-0.732 0.096-1.405 0.26-1.913 0.59-0.934 0.607-1.222 1.677-1.432 2.459zM5.050 27.771c-0.035-0.008-0.070-0.013-0.105-0.013-0.080 0-0.16 0.022-0.231 0.065-0.103 0.062-0.174 0.16-0.203 0.275-0.058 0.239 0.088 0.483 0.327 0.541l12.364 3.051c0.114 0.029 0.234 0.010 0.336-0.052s0.175-0.16 0.203-0.275c0.028-0.115 0.009-0.235-0.052-0.338s-0.159-0.175-0.274-0.203l-12.364-3.051zM12.196 28.419l-5.164-1.274 1.042-4.678 0.867 3.247c0.031 0.115 0.097 0.216 0.191 0.288l2.301 1.786c0.095 0.075 0.212 0.114 0.33 0.114 0.047 0 0.094-0.006 0.14-0.019l0.273-0.073c0.009 0.201 0.015 0.403 0.020 0.609zM7.056 22.075c-0.952-0.312-1.778-0.934-2.333-1.77l0.752-0.328c0.131-0.057 0.234-0.164 0.287-0.298s0.050-0.283-0.007-0.414l-2.646-6.11-0.416 0.181c-0.023-0.076-0.048-0.151-0.068-0.227-0.901-3.375 1.102-6.858 4.467-7.763 0.584-0.158 1.18-0.226 1.777-0.213 0.008 0.329 0.041 0.608 0.097 0.846-0.551-0.023-1.108 0.035-1.655 0.182-1.412 0.38-2.593 1.288-3.324 2.559s-0.925 2.751-0.547 4.169c0.655 2.451 2.873 4.072 5.289 4.072 0.468 0 0.943-0.061 1.416-0.188 0.468-0.126 0.903-0.315 1.305-0.547l0.43 1.61-4.496 1.209c-0.759 0.204-1.212 0.991-1.009 1.754 0.112 0.419 0.4 0.742 0.762 0.916l-0.080 0.359zM2.605 20.047l1.946-0.848-2.001-4.62-1.946 0.849 2.001 4.62z"></path>
<path fill="#fff" d="M42.851 10.529h5.345v-1.965h-13.292v1.965h5.368v13.188h2.58v-13.188z"></path>
<path fill="#fff" d="M56.559 23.925c2.983 0 5.379-1.294 6.727-3.618 0.668-1.156 1.002-2.543 1.002-4.161 0-3.236-1.44-5.606-3.755-6.854-1.164-0.624-2.488-0.936-3.974-0.936-2.949 0-5.38 1.295-6.727 3.618-0.68 1.167-1.014 2.554-1.014 4.173 0 3.225 1.44 5.595 3.778 6.843 1.163 0.624 2.488 0.936 3.962 0.936zM56.559 21.833c-1.97 0-3.582-0.867-4.492-2.566-0.449-0.844-0.68-1.884-0.68-3.121 0-2.462 0.968-4.184 2.534-5.051 0.772-0.428 1.659-0.647 2.638-0.647 1.981 0 3.594 0.867 4.492 2.566 0.45 0.856 0.668 1.896 0.668 3.132 0 2.462-0.956 4.173-2.511 5.040-0.772 0.428-1.659 0.647-2.649 0.647z"></path>
<path fill="#fff" d="M69.102 12.609h0.173l8.697 11.108h2.418v-15.154h-2.591v11.131h-0.162l-8.731-11.131h-2.396v15.154h2.591v-11.108z"></path>
<path fill="#fff" d="M86.711 19.695h6.693l1.578 4.022h2.741l-6.162-15.154h-2.995l-6.174 15.154h2.753l1.566-4.022zM90.121 11.314l2.534 6.473h-5.195l2.523-6.473h0.138z"></path>
<path fill="#fff" d="M101.778 8.563h-2.591v15.154h2.591v-15.154z"></path>
</svg>
