<svg xmlns="http://www.w3.org/2000/svg" width="169" height="48" fill="none"><g clip-path="url(#a)"><path fill="#fff" d="M135.762 46.58 118.855.03l-.011-.03h-.334l-3.482 9.566-6.338 17.414-.015-.014c-2.196-1.938-5.296-3.15-9.199-3.601l-1.19-.123 1.18-.151c6.437-1.157 10.764-5.222 10.764-10.12 0-6.716-6.317-11.404-15.366-11.404H76.037v.34h5.47V36.61L68.222.031 68.21 0h-.334l-3.482 9.566L50.966 46.46l-.083.01a14.383 14.383 0 0 1-1.692.11H35.623L61.415 1.907l.191-.336H30.062v13.82h.335c.06-6.732 3.98-13.484 12.64-13.484h10.45L27.5 46.914h35.009v-13.24h-.335c-.045 5.867-3.371 11.44-10.604 12.698l-.23.04 5.508-15.14h15.43l5.56 15.308h-5.485v.334H93.88v-.334h-5.508V23.489h6.356c6.467 0 10.177 2.89 10.177 7.925v4.096c0 .451.03 1.111.064 1.663v.02l-3.416 9.385H97.09v.334h9.237v-.334h-4.415l3.111-8.546.01.132.086.77.082.51c.519 3.15 1.725 5.467 3.581 6.885l.267.193c1.411.981 3.164 1.478 5.214 1.478 2.714 0 4.525-.677 6.019-2.27l-.196-.184c-1.377 1.27-2.532 1.786-3.98 1.786-2.467 0-3.758-2.993-3.758-5.944V35.65a12.89 12.89 0 0 0-.66-4.192l-.062-.178v-.006h11.286l5.56 15.308h-5.485v.334h18.629v-.334l-5.854-.002Zm-78.79-15.643 7.6-20.882 7.584 20.882H56.971Zm31.403-7.784V1.907h4.85c6.481 0 9.902 3.852 9.902 11.136 0 7.747-1.964 10.11-8.4 10.11h-6.352Zm23.12 7.784-.033-.082a10.372 10.372 0 0 0-2.151-3.284l-.318-.318-.034-.031 6.243-17.167 7.584 20.882h-11.291Z"/></g><defs><clipPath id="a"><path fill="#fff" d="M27.5 0h114.116v48H27.5z"/></clipPath></defs></svg>