<svg width="122" height="84" viewBox="0 0 122 84" fill="none" xmlns="http://www.w3.org/2000/svg">
<path d="M60.2912 36.0001V22.9092H62.6051V27.8055H62.701C62.8203 27.5669 62.9886 27.3133 63.206 27.0448C63.4233 26.7721 63.7173 26.5399 64.0881 26.3481C64.4588 26.1521 64.9318 26.0541 65.5071 26.0541C66.2656 26.0541 66.9496 26.248 67.559 26.6357C68.1726 27.0193 68.6584 27.5882 69.0163 28.3424C69.3786 29.0924 69.5597 30.0129 69.5597 31.1038C69.5597 32.1819 69.3828 33.0981 69.0291 33.8524C68.6754 34.6066 68.1939 35.1819 67.5845 35.5782C66.9751 35.9745 66.2848 36.1727 65.5135 36.1727C64.951 36.1727 64.4844 36.0789 64.1136 35.8914C63.7429 35.7039 63.4446 35.4781 63.2188 35.2139C62.9972 34.9454 62.8246 34.6918 62.701 34.4532H62.5668V36.0001H60.2912ZM62.5604 31.091C62.5604 31.7259 62.6499 32.282 62.8288 32.7593C63.0121 33.2366 63.2742 33.6095 63.6151 33.8779C63.9602 34.1421 64.3778 34.2742 64.8679 34.2742C65.3793 34.2742 65.8075 34.1379 66.1527 33.8651C66.4979 33.5882 66.7578 33.211 66.9325 32.7338C67.1115 32.2522 67.201 31.7046 67.201 31.091C67.201 30.4816 67.1136 29.9404 66.9389 29.4674C66.7642 28.9944 66.5043 28.6237 66.1591 28.3552C65.8139 28.0867 65.3835 27.9525 64.8679 27.9525C64.3736 27.9525 63.9538 28.0825 63.6087 28.3424C63.2635 28.6024 63.0014 28.9667 62.8224 29.4355C62.6477 29.9042 62.5604 30.4561 62.5604 31.091Z" fill="white"/>
<path d="M72.9407 22.9092V36.0001H70.6268V22.9092H72.9407Z" fill="white"/>
<path d="M77.2455 36.1982C76.6233 36.1982 76.0629 36.0874 75.5644 35.8659C75.07 35.64 74.678 35.3076 74.3882 34.8687C74.1027 34.4298 73.9599 33.8886 73.9599 33.2451C73.9599 32.6911 74.0622 32.233 74.2668 31.8708C74.4713 31.5086 74.7504 31.2188 75.1041 31.0015C75.4578 30.7842 75.8563 30.6201 76.2994 30.5093C76.7469 30.3943 77.2092 30.3112 77.6865 30.26C78.2618 30.2004 78.7284 30.1471 79.0864 30.1002C79.4443 30.0491 79.7043 29.9724 79.8662 29.8701C80.0324 29.7636 80.1155 29.5995 80.1155 29.3779V29.3396C80.1155 28.858 79.9727 28.4852 79.6872 28.221C79.4017 27.9568 78.9905 27.8247 78.4536 27.8247C77.8868 27.8247 77.4372 27.9482 77.1048 28.1954C76.7767 28.4426 76.5551 28.7345 76.4401 29.0711L74.2796 28.7643C74.45 28.1677 74.7313 27.6691 75.1233 27.2686C75.5153 26.8637 75.9948 26.5612 76.5615 26.3609C77.1283 26.1563 77.7547 26.0541 78.4408 26.0541C78.9138 26.0541 79.3847 26.1095 79.8534 26.2203C80.3222 26.3311 80.7504 26.5143 81.1382 26.77C81.526 27.0214 81.8371 27.3644 82.0715 27.7991C82.3101 28.2338 82.4294 28.7771 82.4294 29.4291V36.0001H80.205V34.6514H80.1283C79.9876 34.9241 79.7895 35.1798 79.5338 35.4184C79.2824 35.6528 78.9649 35.8424 78.5814 35.9873C78.2021 36.1279 77.7568 36.1982 77.2455 36.1982ZM77.8463 34.498C78.3108 34.498 78.7135 34.4063 79.0544 34.2231C79.3953 34.0356 79.6574 33.7884 79.8406 33.4816C80.0281 33.1748 80.1219 32.8403 80.1219 32.4781V31.3211C80.0494 31.3808 79.9259 31.4362 79.7511 31.4873C79.5807 31.5384 79.3889 31.5832 79.1759 31.6215C78.9628 31.6599 78.7519 31.694 78.543 31.7238C78.3342 31.7536 78.1531 31.7792 77.9997 31.8005C77.6546 31.8474 77.3456 31.9241 77.0729 32.0306C76.8001 32.1372 76.5849 32.2863 76.4273 32.4781C76.2696 32.6656 76.1908 32.9085 76.1908 33.2068C76.1908 33.6329 76.3463 33.9546 76.6574 34.172C76.9685 34.3893 77.3648 34.498 77.8463 34.498Z" fill="white"/>
<path d="M88.1388 36.1918C87.1587 36.1918 86.3171 35.9767 85.6139 35.5463C84.9151 35.1159 84.376 34.5214 83.9967 33.7629C83.6217 33.0001 83.4342 32.1222 83.4342 31.1293C83.4342 30.1322 83.626 29.2522 84.0095 28.4894C84.393 27.7224 84.9342 27.1258 85.6331 26.6997C86.3362 26.2693 87.1672 26.0541 88.126 26.0541C88.9229 26.0541 89.6281 26.2011 90.2418 26.4951C90.8597 26.7849 91.3519 27.1961 91.7183 27.7288C92.0848 28.2572 92.2936 28.8751 92.3447 29.5825H90.1331C90.0436 29.1095 89.8305 28.7153 89.4939 28.3999C89.1615 28.0803 88.7162 27.9205 88.158 27.9205C87.6849 27.9205 87.2695 28.0484 86.9115 28.3041C86.5536 28.5555 86.2744 28.9177 86.0742 29.3907C85.8781 29.8637 85.7801 30.4305 85.7801 31.091C85.7801 31.76 85.8781 32.3353 86.0742 32.8168C86.2702 33.2941 86.545 33.6627 86.8987 33.9227C87.2567 34.1784 87.6764 34.3062 88.158 34.3062C88.4989 34.3062 88.8036 34.2423 89.072 34.1144C89.3447 33.9823 89.5727 33.7927 89.756 33.5455C89.9392 33.2984 90.0649 32.998 90.1331 32.6443H92.3447C92.2894 33.3389 92.0848 33.9546 91.7311 34.4916C91.3774 35.0242 90.8959 35.4418 90.2865 35.7444C89.6771 36.0427 88.9612 36.1918 88.1388 36.1918Z" fill="white"/>
<path d="M95.4542 32.9191L95.4478 30.1258H95.8185L99.3469 26.1819H102.051L97.7106 31.0143H97.2311L95.4542 32.9191ZM93.3448 36.0001V22.9092H95.6587V36.0001H93.3448ZM99.5067 36.0001L96.3107 31.532L97.8704 29.9021L102.274 36.0001H99.5067Z" fill="white"/>
<path d="M60.2912 54.0001V40.9092H62.6051V45.8055H62.701C62.8203 45.5669 62.9886 45.3133 63.206 45.0448C63.4233 44.7721 63.7173 44.5399 64.0881 44.3481C64.4588 44.1521 64.9318 44.0541 65.5071 44.0541C66.2656 44.0541 66.9496 44.248 67.559 44.6357C68.1726 45.0193 68.6584 45.5882 69.0163 46.3424C69.3786 47.0924 69.5597 48.0129 69.5597 49.1038C69.5597 50.1819 69.3828 51.0981 69.0291 51.8524C68.6754 52.6066 68.1939 53.1819 67.5845 53.5782C66.9751 53.9745 66.2848 54.1727 65.5135 54.1727C64.951 54.1727 64.4844 54.0789 64.1136 53.8914C63.7429 53.7039 63.4446 53.4781 63.2188 53.2139C62.9972 52.9454 62.8246 52.6918 62.701 52.4532H62.5668V54.0001H60.2912ZM62.5604 49.091C62.5604 49.7259 62.6499 50.282 62.8288 50.7593C63.0121 51.2366 63.2742 51.6095 63.6151 51.8779C63.9602 52.1421 64.3778 52.2742 64.8679 52.2742C65.3793 52.2742 65.8075 52.1379 66.1527 51.8651C66.4979 51.5882 66.7578 51.211 66.9325 50.7338C67.1115 50.2522 67.201 49.7046 67.201 49.091C67.201 48.4816 67.1136 47.9404 66.9389 47.4674C66.7642 46.9944 66.5043 46.6237 66.1591 46.3552C65.8139 46.0867 65.3835 45.9525 64.8679 45.9525C64.3736 45.9525 63.9538 46.0825 63.6087 46.3424C63.2635 46.6024 63.0014 46.9667 62.8224 47.4355C62.6477 47.9042 62.5604 48.4561 62.5604 49.091Z" fill="white"/>
<path d="M74.9095 54.1918C73.9507 54.1918 73.1197 53.9809 72.4166 53.559C71.7135 53.1372 71.168 52.547 70.7802 51.7884C70.3967 51.0299 70.2049 50.1436 70.2049 49.1293C70.2049 48.1151 70.3967 47.2267 70.7802 46.4639C71.168 45.7011 71.7135 45.1088 72.4166 44.6869C73.1197 44.265 73.9507 44.0541 74.9095 44.0541C75.8683 44.0541 76.6993 44.265 77.4024 44.6869C78.1055 45.1088 78.6488 45.7011 79.0324 46.4639C79.4201 47.2267 79.614 48.1151 79.614 49.1293C79.614 50.1436 79.4201 51.0299 79.0324 51.7884C78.6488 52.547 78.1055 53.1372 77.4024 53.559C76.6993 53.9809 75.8683 54.1918 74.9095 54.1918ZM74.9223 52.3382C75.4422 52.3382 75.8768 52.1954 76.2262 51.9099C76.5757 51.6201 76.8356 51.2323 77.0061 50.7465C77.1808 50.2607 77.2682 49.7195 77.2682 49.123C77.2682 48.5221 77.1808 47.9788 77.0061 47.493C76.8356 47.0029 76.5757 46.613 76.2262 46.3232C75.8768 46.0335 75.4422 45.8886 74.9223 45.8886C74.3896 45.8886 73.9464 46.0335 73.5927 46.3232C73.2433 46.613 72.9812 47.0029 72.8065 47.493C72.6361 47.9788 72.5508 48.5221 72.5508 49.123C72.5508 49.7195 72.6361 50.2607 72.8065 50.7465C72.9812 51.2323 73.2433 51.6201 73.5927 51.9099C73.9464 52.1954 74.3896 52.3382 74.9223 52.3382Z" fill="white"/>
<path d="M82.2009 44.1819L84.1824 47.8062L86.1959 44.1819H88.6441L85.6846 49.091L88.6952 54.0001H86.2598L84.1824 50.4653L82.1242 54.0001H79.6696L82.6611 49.091L79.7463 44.1819H82.2009Z" fill="white"/>
<path d="M62.2415 69.6591C61.6051 69.6591 61.0433 69.4983 60.5561 69.1768C60.0689 68.852 59.6877 68.3946 59.4126 67.8047C59.1375 67.2114 59 66.5104 59 65.7017C59 64.8996 59.1375 64.2036 59.4126 63.6136C59.6877 63.0237 60.0705 62.5679 60.5611 62.2464C61.0516 61.925 61.6184 61.7642 62.2614 61.7642C62.7585 61.7642 63.1513 61.8471 63.4396 62.0128C63.7313 62.1752 63.9534 62.3608 64.1058 62.5696C64.2616 62.7751 64.3826 62.9441 64.4688 63.0767H64.5682V59.3182H65.7415V69.5H64.608V68.3267H64.4688C64.3826 68.4659 64.2599 68.6416 64.1009 68.8537C63.9418 69.0625 63.7147 69.2498 63.4197 69.4155C63.1248 69.5779 62.732 69.6591 62.2415 69.6591ZM62.4006 68.6051C62.8712 68.6051 63.2689 68.4825 63.5938 68.2372C63.9186 67.9886 64.1655 67.6456 64.3345 67.2081C64.5036 66.7673 64.5881 66.2585 64.5881 65.6818C64.5881 65.1117 64.5052 64.6129 64.3395 64.1854C64.1738 63.7545 63.9285 63.4197 63.6037 63.1811C63.2789 62.9392 62.8778 62.8182 62.4006 62.8182C61.9034 62.8182 61.4891 62.9458 61.1577 63.201C60.8295 63.4529 60.5826 63.7959 60.4169 64.2301C60.2545 64.661 60.1733 65.1449 60.1733 65.6818C60.1733 66.2254 60.2562 66.7192 60.4219 67.1634C60.5909 67.6042 60.8395 67.9555 61.1676 68.2173C61.4991 68.4759 61.91 68.6051 62.4006 68.6051Z" fill="url(#paint0_linear_560_41)"/>
<path d="M67.4933 69.5V61.8636H68.6666V69.5H67.4933ZM68.0899 60.5909C67.8612 60.5909 67.664 60.513 67.4982 60.3572C67.3358 60.2015 67.2546 60.0142 67.2546 59.7955C67.2546 59.5767 67.3358 59.3894 67.4982 59.2337C67.664 59.0779 67.8612 59 68.0899 59C68.3186 59 68.5141 59.0779 68.6765 59.2337C68.8422 59.3894 68.9251 59.5767 68.9251 59.7955C68.9251 60.0142 68.8422 60.2015 68.6765 60.3572C68.5141 60.513 68.3186 60.5909 68.0899 60.5909Z" fill="url(#paint1_linear_560_41)"/>
<path d="M75.6646 63.5739L74.6106 63.8722C74.5444 63.6965 74.4466 63.5258 74.3173 63.3601C74.1914 63.1911 74.019 63.0518 73.8003 62.9425C73.5815 62.8331 73.3015 62.7784 72.9601 62.7784C72.4927 62.7784 72.1033 62.8861 71.7918 63.1016C71.4835 63.3137 71.3294 63.5838 71.3294 63.9119C71.3294 64.2036 71.4355 64.4339 71.6476 64.603C71.8597 64.772 72.1911 64.9129 72.6419 65.0256L73.7754 65.304C74.4582 65.4697 74.9669 65.7232 75.3017 66.0646C75.6364 66.4027 75.8038 66.8385 75.8038 67.3722C75.8038 67.8097 75.6779 68.2008 75.426 68.5455C75.1774 68.8902 74.8294 69.1619 74.382 69.3608C73.9345 69.5597 73.4142 69.6591 72.8209 69.6591C72.042 69.6591 71.3973 69.4901 70.8869 69.152C70.3765 68.8139 70.0534 68.3201 69.9175 67.6705L71.0311 67.392C71.1372 67.803 71.3377 68.1113 71.6327 68.3168C71.931 68.5223 72.3204 68.625 72.801 68.625C73.3479 68.625 73.782 68.509 74.1035 68.277C74.4284 68.0417 74.5908 67.7599 74.5908 67.4318C74.5908 67.1667 74.498 66.9446 74.3124 66.7656C74.1267 66.5833 73.8417 66.4474 73.4572 66.358L72.1845 66.0597C71.4852 65.8939 70.9714 65.6371 70.6433 65.2891C70.3185 64.9377 70.1561 64.4986 70.1561 63.9716C70.1561 63.5407 70.2771 63.1596 70.519 62.8281C70.7643 62.4967 71.0974 62.2365 71.5183 62.0476C71.9426 61.8587 72.4231 61.7642 72.9601 61.7642C73.7158 61.7642 74.309 61.9299 74.7399 62.2614C75.1741 62.5928 75.4823 63.0303 75.6646 63.5739Z" fill="url(#paint2_linear_560_41)"/>
<path d="M80.1123 69.6591C79.3963 69.6591 78.7799 69.4901 78.2628 69.152C77.7458 68.8139 77.3481 68.3482 77.0696 67.755C76.7912 67.1617 76.652 66.4839 76.652 65.7216C76.652 64.946 76.7945 64.2616 77.0796 63.6683C77.3679 63.0717 77.769 62.6061 78.2827 62.2713C78.7998 61.9332 79.403 61.7642 80.0924 61.7642C80.6293 61.7642 81.1132 61.8636 81.5441 62.0625C81.9749 62.2614 82.3279 62.5398 82.603 62.8977C82.8781 63.2557 83.0488 63.6733 83.1151 64.1506H81.9418C81.8523 63.8026 81.6535 63.4943 81.3452 63.2259C81.0403 62.9541 80.6293 62.8182 80.1123 62.8182C79.6549 62.8182 79.2538 62.9375 78.9091 63.1761C78.5677 63.4115 78.3009 63.7446 78.1087 64.1754C77.9198 64.603 77.8253 65.1051 77.8253 65.6818C77.8253 66.2718 77.9181 66.7855 78.1037 67.223C78.2927 67.6605 78.5578 68.0002 78.8992 68.2422C79.2439 68.4841 79.6482 68.6051 80.1123 68.6051C80.4172 68.6051 80.6939 68.5521 80.9425 68.446C81.1911 68.34 81.4016 68.1875 81.5739 67.9886C81.7463 67.7898 81.8689 67.5511 81.9418 67.2727H83.1151C83.0488 67.7235 82.8847 68.1295 82.6229 68.4908C82.3644 68.8487 82.0213 69.1338 81.5938 69.3459C81.1695 69.5547 80.6757 69.6591 80.1123 69.6591Z" fill="url(#paint3_linear_560_41)"/>
<path d="M87.3726 69.6591C86.6832 69.6591 86.0783 69.495 85.5579 69.1669C85.0409 68.8388 84.6365 68.3797 84.3449 67.7898C84.0565 67.1998 83.9123 66.5104 83.9123 65.7216C83.9123 64.9261 84.0565 64.2318 84.3449 63.6385C84.6365 63.0452 85.0409 62.5845 85.5579 62.2564C86.0783 61.9283 86.6832 61.7642 87.3726 61.7642C88.062 61.7642 88.6652 61.9283 89.1822 62.2564C89.7026 62.5845 90.1069 63.0452 90.3953 63.6385C90.687 64.2318 90.8328 64.9261 90.8328 65.7216C90.8328 66.5104 90.687 67.1998 90.3953 67.7898C90.1069 68.3797 89.7026 68.8388 89.1822 69.1669C88.6652 69.495 88.062 69.6591 87.3726 69.6591ZM87.3726 68.6051C87.8962 68.6051 88.3271 68.4709 88.6652 68.2024C89.0033 67.9339 89.2535 67.581 89.4159 67.1435C89.5783 66.706 89.6595 66.232 89.6595 65.7216C89.6595 65.2112 89.5783 64.7356 89.4159 64.2947C89.2535 63.8539 89.0033 63.4976 88.6652 63.2259C88.3271 62.9541 87.8962 62.8182 87.3726 62.8182C86.8489 62.8182 86.418 62.9541 86.08 63.2259C85.7419 63.4976 85.4917 63.8539 85.3292 64.2947C85.1668 64.7356 85.0856 65.2112 85.0856 65.7216C85.0856 66.232 85.1668 66.706 85.3292 67.1435C85.4917 67.581 85.7419 67.9339 86.08 68.2024C86.418 68.4709 86.8489 68.6051 87.3726 68.6051Z" fill="url(#paint4_linear_560_41)"/>
<path d="M98.0347 61.8636L95.2108 69.5H94.0177L91.1938 61.8636H92.4665L94.5745 67.9489H94.654L96.762 61.8636H98.0347Z" fill="url(#paint5_linear_560_41)"/>
<path d="M101.952 69.6591C101.216 69.6591 100.581 69.4967 100.047 69.1719C99.5172 68.8437 99.1079 68.3864 98.8195 67.7997C98.5345 67.2098 98.392 66.5237 98.392 65.7415C98.392 64.9593 98.5345 64.2699 98.8195 63.6733C99.1079 63.0734 99.5089 62.6061 100.023 62.2713C100.54 61.9332 101.143 61.7642 101.832 61.7642C102.23 61.7642 102.623 61.8305 103.011 61.9631C103.398 62.0956 103.751 62.3111 104.07 62.6094C104.388 62.9044 104.641 63.2955 104.83 63.7827C105.019 64.2699 105.114 64.8698 105.114 65.5824V66.0795H99.2272V65.0653H103.92C103.92 64.6345 103.834 64.25 103.662 63.9119C103.493 63.5739 103.251 63.3071 102.936 63.1115C102.624 62.916 102.257 62.8182 101.832 62.8182C101.365 62.8182 100.961 62.9342 100.619 63.1662C100.281 63.3949 100.021 63.6932 99.8387 64.0611C99.6564 64.429 99.5653 64.8234 99.5653 65.2443V65.9205C99.5653 66.4972 99.6647 66.986 99.8635 67.3871C100.066 67.7848 100.346 68.0881 100.704 68.2969C101.062 68.5024 101.478 68.6051 101.952 68.6051C102.26 68.6051 102.538 68.562 102.787 68.4759C103.039 68.3864 103.256 68.2538 103.438 68.0781C103.62 67.8991 103.761 67.6771 103.861 67.4119L104.994 67.7301C104.875 68.1146 104.674 68.4527 104.393 68.7443C104.111 69.0327 103.763 69.258 103.349 69.4205C102.934 69.5795 102.469 69.6591 101.952 69.6591Z" fill="url(#paint6_linear_560_41)"/>
<path d="M106.338 69.5V61.8636H107.472V63.017H107.551C107.691 62.6392 107.943 62.3326 108.307 62.0973C108.672 61.862 109.083 61.7443 109.54 61.7443C109.626 61.7443 109.734 61.746 109.863 61.7493C109.992 61.7526 110.09 61.7576 110.157 61.7642V62.9574C110.117 62.9474 110.026 62.9325 109.883 62.9126C109.744 62.8894 109.596 62.8778 109.441 62.8778C109.069 62.8778 108.738 62.9557 108.446 63.1115C108.158 63.264 107.929 63.4761 107.76 63.7479C107.595 64.0163 107.512 64.3229 107.512 64.6676V69.5H106.338Z" fill="url(#paint7_linear_560_41)"/>
<path d="M111.975 72.3636C111.777 72.3636 111.599 72.3471 111.443 72.3139C111.288 72.2841 111.18 72.2543 111.12 72.2244L111.419 71.1903C111.704 71.2633 111.956 71.2898 112.174 71.2699C112.393 71.25 112.587 71.1522 112.756 70.9766C112.928 70.8042 113.086 70.5241 113.228 70.1364L113.447 69.5398L110.623 61.8636H111.896L114.004 67.9489H114.083L116.191 61.8636H117.464L114.223 70.6136C114.077 71.008 113.896 71.3345 113.681 71.593C113.465 71.8549 113.215 72.0488 112.93 72.1747C112.648 72.3007 112.33 72.3636 111.975 72.3636Z" fill="url(#paint8_linear_560_41)"/>
<g clip-path="url(#clip0_560_41)">
<path fill-rule="evenodd" clip-rule="evenodd" d="M-0.00012207 40.222L48.0001 40.2219V70.7776L24.0001 82.9999L-0.00012207 40.222Z" fill="#1F1A17" stroke="#1F1A17" stroke-width="0.0762"/>
<path fill-rule="evenodd" clip-rule="evenodd" d="M0 70.7778L24.0001 83.0001V40.1833L0 40.2221V70.7778Z" fill="#383431" stroke="#383431" stroke-width="0.0762"/>
<path fill-rule="evenodd" clip-rule="evenodd" d="M0 40.222L24.0001 27.9998L48.0001 40.222L24.0001 52.4443L0 40.222Z" fill="#4D4948" stroke="#4D4948" stroke-width="0.0762"/>
<path fill-rule="evenodd" clip-rule="evenodd" d="M24.1997 40.1533C9.5484 40.1533 10.7024 36.7084 27.6348 29.8508L37.1081 34.6753C34.0436 36.2333 29.7432 38.0589 24.1997 40.1533Z" fill="#383431"/>
<path fill-rule="evenodd" clip-rule="evenodd" d="M24.0001 40.222C8.02668 40.222 0 32.0468 0 15.7776C15.9734 15.7776 24.0001 23.9529 24.0001 40.222Z" fill="url(#paint9_linear_560_41)"/>
<path fill-rule="evenodd" clip-rule="evenodd" d="M24.0001 27.9998C35.969 27.9998 42.0001 21.8571 42.0001 9.6665C30.0311 9.6665 24.0001 15.8093 24.0001 27.9998Z" fill="url(#paint10_linear_560_41)"/>
<path fill-rule="evenodd" clip-rule="evenodd" d="M24.0001 19.0623C15.8192 19.0623 12 15.1725 12 6.84009C20.1809 6.84009 24.0001 10.7299 24.0001 19.0623Z" fill="#00E5FF"/>
<path fill-rule="evenodd" clip-rule="evenodd" d="M33.0001 28C34.6568 28 36.0002 29.3682 36.0002 31.0556C36.0002 32.7426 34.6568 34.1112 33.0001 34.1112C31.3434 34.1112 30.0001 32.7426 30.0001 31.0556C30.0001 29.3682 31.3434 28 33.0001 28Z" fill="#FF6DC1"/>
<path fill-rule="evenodd" clip-rule="evenodd" d="M0 15.7776L24.0001 40.222C8.02668 40.222 0 32.0468 0 15.7776Z" fill="black" fill-opacity="0.1"/>
<path fill-rule="evenodd" clip-rule="evenodd" d="M42.0001 9.6665L24.0001 27.9998C35.969 27.9998 42.0001 21.8571 42.0001 9.6665Z" fill="black" fill-opacity="0.1"/>
<path fill-rule="evenodd" clip-rule="evenodd" d="M12 6.84009L24.0001 19.0623C15.8191 19.0623 12 15.1725 12 6.84009Z" fill="black" fill-opacity="0.1"/>
</g>
<defs>
<linearGradient id="paint0_linear_560_41" x1="52.6536" y1="64.4939" x2="122.657" y2="64.4939" gradientUnits="userSpaceOnUse">
<stop stop-color="#01F3FD"/>
<stop offset="1" stop-color="#FF6DC1"/>
</linearGradient>
<linearGradient id="paint1_linear_560_41" x1="52.6536" y1="64.4939" x2="122.657" y2="64.4939" gradientUnits="userSpaceOnUse">
<stop stop-color="#01F3FD"/>
<stop offset="1" stop-color="#FF6DC1"/>
</linearGradient>
<linearGradient id="paint2_linear_560_41" x1="52.6536" y1="64.4939" x2="122.657" y2="64.4939" gradientUnits="userSpaceOnUse">
<stop stop-color="#01F3FD"/>
<stop offset="1" stop-color="#FF6DC1"/>
</linearGradient>
<linearGradient id="paint3_linear_560_41" x1="52.6536" y1="64.4939" x2="122.657" y2="64.4939" gradientUnits="userSpaceOnUse">
<stop stop-color="#01F3FD"/>
<stop offset="1" stop-color="#FF6DC1"/>
</linearGradient>
<linearGradient id="paint4_linear_560_41" x1="52.6536" y1="64.4939" x2="122.657" y2="64.4939" gradientUnits="userSpaceOnUse">
<stop stop-color="#01F3FD"/>
<stop offset="1" stop-color="#FF6DC1"/>
</linearGradient>
<linearGradient id="paint5_linear_560_41" x1="52.6536" y1="64.4939" x2="122.657" y2="64.4939" gradientUnits="userSpaceOnUse">
<stop stop-color="#01F3FD"/>
<stop offset="1" stop-color="#FF6DC1"/>
</linearGradient>
<linearGradient id="paint6_linear_560_41" x1="52.6536" y1="64.4939" x2="122.657" y2="64.4939" gradientUnits="userSpaceOnUse">
<stop stop-color="#01F3FD"/>
<stop offset="1" stop-color="#FF6DC1"/>
</linearGradient>
<linearGradient id="paint7_linear_560_41" x1="52.6536" y1="64.4939" x2="122.657" y2="64.4939" gradientUnits="userSpaceOnUse">
<stop stop-color="#01F3FD"/>
<stop offset="1" stop-color="#FF6DC1"/>
</linearGradient>
<linearGradient id="paint8_linear_560_41" x1="52.6536" y1="64.4939" x2="122.657" y2="64.4939" gradientUnits="userSpaceOnUse">
<stop stop-color="#01F3FD"/>
<stop offset="1" stop-color="#FF6DC1"/>
</linearGradient>
<linearGradient id="paint9_linear_560_41" x1="25.5791" y1="6.27142" x2="-1.53288" y2="6.86009" gradientUnits="userSpaceOnUse">
<stop stop-color="#01F3FD"/>
<stop offset="1" stop-color="#FF6DC1"/>
</linearGradient>
<linearGradient id="paint10_linear_560_41" x1="43.1843" y1="2.53687" x2="22.8505" y2="2.97838" gradientUnits="userSpaceOnUse">
<stop stop-color="#01F3FD"/>
<stop offset="1" stop-color="#FF6DC1"/>
</linearGradient>
<clipPath id="clip0_560_41">
<rect width="48" height="77" fill="white" transform="translate(0 6)"/>
</clipPath>
</defs>
</svg>
